<svg width="143px" height="102px" xmlns="http://www.w3.org/2000/svg" xmlns:xlink="http://www.w3.org/1999/xlink" viewBox="0 0 142.982 101.872"><defs><style>.a{fill:#fff;}.b{fill:#39d894;}.c{fill:#61c4f2;}.d,.i{fill:#263357;}.e{fill:#ffc258;}.f{clip-path:url(#a);}.g{fill:none;}.h,.i{stroke:none;}</style><clipPath id="a"><rect class="a" width="19.382" height="39.371"/></clipPath></defs><g transform="translate(-878.516 -374.282)"><g transform="translate(896.793 378.282)"><g transform="translate(23.039 1.927)"><path class="b" d="M106.81,7.128a4.58,4.58,0,0,0-4.6-4.558H35.333a4.58,4.58,0,0,0-4.6,4.558v6.567h76.08Z" transform="translate(-30.73 -2.57)"/></g><g transform="translate(4.336 82.699)"><path class="c" d="M69.109,110.32c-1.214,2.084-2.849,1.657-8.134,1.657a3.29,3.29,0,0,1-2.849-1.657H5.78v.825a5.791,5.791,0,0,0,5.787,5.787H115.136a5.791,5.791,0,0,0,5.787-5.787v-.825Z" transform="translate(-5.78 -110.32)"/></g><g transform="translate(21.982 11.417)"><path class="d" d="M29.32,85.291V16.714a1.5,1.5,0,0,1,2.991,0V85.291A1.5,1.5,0,0,1,29.32,85.291Z" transform="translate(-29.32 -15.23)"/></g><g transform="translate(99.187 11.417)"><path class="d" d="M132.31,85.291V16.714a1.5,1.5,0,0,1,2.991,0V85.291A1.5,1.5,0,0,1,132.31,85.291Z" transform="translate(-132.31 -15.23)"/></g><g transform="translate(21.982)"><path class="d" d="M107.926,14.393c-.075.007-77.04,0-77.115,0A1.491,1.491,0,0,1,29.32,12.9V6.619A6.626,6.626,0,0,1,35.939,0H102.9a6.626,6.626,0,0,1,6.619,6.619V12.9A1.492,1.492,0,0,1,107.926,14.393ZM32.311,11.409h74.221V6.619A3.631,3.631,0,0,0,102.9,2.991H35.939a3.631,3.631,0,0,0-3.628,3.628Z" transform="translate(-29.32)"/></g><g transform="translate(6.142 20.045)"><path class="d" d="M8.19,89.394V32.37a5.637,5.637,0,0,1,5.63-5.63H24.03a1.5,1.5,0,0,1,0,3H13.82a2.635,2.635,0,0,0-2.631,2.631V89.4A1.5,1.5,0,0,1,8.19,89.394Z" transform="translate(-8.19 -26.74)"/></g><g transform="translate(100.338 20.045)"><path class="d" d="M148.175,89.394V32.37a2.635,2.635,0,0,0-2.631-2.631h-10.21a1.5,1.5,0,0,1,0-3h10.21a5.637,5.637,0,0,1,5.63,5.63V89.4A1.5,1.5,0,0,1,148.175,89.394Z" transform="translate(-133.846 -26.74)"/></g><g transform="translate(12.754 26.657)"><path class="d" d="M17.01,90.516V37.472a1.91,1.91,0,0,1,1.912-1.912h7.316a1.5,1.5,0,0,1,0,3H20.009V90.516A1.5,1.5,0,0,1,17.01,90.516Z" transform="translate(-17.01 -35.56)"/></g><g transform="translate(100.338 26.657)"><path class="d" d="M141.563,89.676V38.559h-6.229a1.5,1.5,0,0,1,0-3h7.316a1.91,1.91,0,0,1,1.912,1.912v52.2A1.5,1.5,0,0,1,141.563,89.676Zm1.087-51.117Z" transform="translate(-133.846 -35.56)"/></g><g transform="translate(2.829 81.15)"><path class="d" d="M114.626,117.914H11.056c-3.493,0-7.286-2.466-7.286-8.111a1.5,1.5,0,0,1,1.5-1.5c56.327,0,53.014-.337,53.644.742.682,1.177,1.327.907,6.844.907,1.642,0,1.372-1.657,2.849-1.657h51.8a1.5,1.5,0,0,1,1.5,1.5v.825A7.285,7.285,0,0,1,114.626,117.914ZM6.829,111.3a4.291,4.291,0,0,0,4.235,3.613H114.633a4.291,4.291,0,0,0,4.235-3.613H69.37c-1.8,2.061-3.583,1.657-8.9,1.657a4.779,4.779,0,0,1-3.606-1.657Z" transform="translate(-3.77 -108.253)"/></g><g transform="translate(21.424 94.873)"><path class="d" d="M114.772,129.559H30.063a1.5,1.5,0,0,1,0-3h84.708A1.5,1.5,0,0,1,114.772,129.559Z" transform="translate(-28.576 -126.56)"/></g><g transform="translate(29.456 5.808)"><path class="d" d="M39.29,9.406a1.694,1.694,0,0,0,3.388,0A1.694,1.694,0,0,0,39.29,9.406Z" transform="translate(-39.29 -7.748)"/></g><g transform="translate(35.475 5.808)"><path class="d" d="M47.32,9.406a1.694,1.694,0,0,0,3.388,0A1.694,1.694,0,0,0,47.32,9.406Z" transform="translate(-47.32 -7.748)"/></g><g transform="translate(41.495 5.808)"><path class="d" d="M55.35,9.406a1.694,1.694,0,0,0,3.388,0A1.694,1.694,0,0,0,55.35,9.406Z" transform="translate(-55.35 -7.748)"/></g><g transform="translate(112.197 87.812)"><path class="d" d="M160.689,120.139h-9.535a1.5,1.5,0,0,1,0-3h9.535A1.5,1.5,0,0,1,160.689,120.139Z" transform="translate(-149.666 -117.14)"/></g><g transform="translate(0 87.812)"><path class="d" d="M11.019,120.139H1.483a1.5,1.5,0,0,1,0-3h9.535A1.5,1.5,0,0,1,11.019,120.139Z" transform="translate(0.004 -117.14)"/></g><g transform="translate(-7.277 23.874)"><g transform="translate(68.069 20.053)"><path class="d" d="M31.2,38.223H1.225a1.111,1.111,0,0,1,0-2.223H31.2a1.111,1.111,0,0,1,0,2.223Z" transform="translate(-0.124 -36)"/></g><g transform="translate(68.069 45.053)"><path class="d" d="M31.2,38.223H1.225a1.111,1.111,0,0,1,0-2.223H31.2a1.111,1.111,0,0,1,0,2.223Z" transform="translate(-0.124 -36)"/></g><g transform="translate(68.069 25.607)"><path class="d" d="M31.2,48.193H1.225a1.111,1.111,0,0,1,0-2.223H31.2a1.111,1.111,0,0,1,0,2.223Z" transform="translate(-0.124 -45.97)"/></g><g transform="translate(87.037 31.545)"><path class="c" d="M46.015,58.858H35.281a1.114,1.114,0,0,1,0-2.228H46.015a1.114,1.114,0,1,1,0,2.228Z" transform="translate(-34.176 -56.63)"/></g><g transform="translate(86.67 38.34)"><path class="c" d="M45.723,71.058h-11.1a1.114,1.114,0,0,1,0-2.228h11.1a1.114,1.114,0,1,1,0,2.228Z" transform="translate(-33.516 -68.83)"/></g><g transform="translate(39.044)"><path class="d" d="M92.835,2.223H71.195a1.111,1.111,0,0,1,0-2.223H92.835a1.111,1.111,0,0,1,0,2.223Z" transform="translate(-70.094)"/></g><g transform="translate(39.044 27)"><path class="d" d="M92.835,2.223H71.195a1.111,1.111,0,0,1,0-2.223H92.835a1.111,1.111,0,0,1,0,2.223Z" transform="translate(-70.094)"/></g><g transform="translate(39.044 5.554)"><path class="d" d="M92.835,12.193H71.195a1.111,1.111,0,0,1,0-2.223H92.835a1.111,1.111,0,0,1,0,2.223Z" transform="translate(-70.094 -9.97)"/></g><g transform="translate(39.044 32.554)"><path class="d" d="M92.835,12.193H71.195a1.111,1.111,0,0,1,0-2.223H92.835a1.111,1.111,0,0,1,0,2.223Z" transform="translate(-70.094 -9.97)"/></g><g transform="translate(39.044 17.697)"><path class="d" d="M92.835,33.993H71.195a1.111,1.111,0,0,1,0-2.223H92.835a1.111,1.111,0,0,1,0,2.223Z" transform="translate(-70.094 -31.77)"/></g><g transform="translate(39.044 11.497)"><path class="d" d="M74.531,22.863H71.195a1.111,1.111,0,0,1,0-2.223h3.337a1.111,1.111,0,0,1,0,2.223Z" transform="translate(-70.094 -20.64)"/></g><g transform="translate(47.272 11.497)"><path class="d" d="M98.715,22.863H85.965a1.111,1.111,0,0,1,0-2.223h12.75a1.111,1.111,0,0,1,0,2.223Z" transform="translate(-84.864 -20.64)"/></g><g transform="translate(47.272 38.497)"><path class="d" d="M98.715,22.863H85.965a1.111,1.111,0,0,1,0-2.223h12.75a1.111,1.111,0,0,1,0,2.223Z" transform="translate(-84.864 -20.64)"/></g><g transform="translate(68 0.061)"><path class="c" d="M.746.11H31.667a.746.746,0,0,1,.746.746V14.91a.746.746,0,0,1-.746.746H.746A.746.746,0,0,1,0,14.91V.856A.746.746,0,0,1,.746.11Z" transform="translate(0 -0.11)"/></g><g transform="translate(68.223 31.216)"><path class="c" d="M14.51,65.326h-13A1.117,1.117,0,0,1,.4,64.212V57.154A1.117,1.117,0,0,1,1.514,56.04h13a1.117,1.117,0,0,1,1.114,1.114v7.058A1.114,1.114,0,0,1,14.51,65.326ZM2.628,63.1H13.4V58.268H2.628Z" transform="translate(-0.4 -56.04)"/></g></g></g><g transform="translate(880.691 396.516)"><rect class="a" width="13.654" height="36.332" transform="translate(21.366 0)"/><ellipse class="a" cx="24.451" cy="24.415" rx="24.451" ry="24.415" transform="translate(0 27.318)"/></g><g transform="translate(878.516 374.282)"><g transform="translate(11.69 2.46)"><path class="e" d="M38.238,57.87V51.032h-1.8V7.987L33.32,4.1,27.089,8.352,28.27,14.47l2.147,3.239-2.381,3.455v4.318l2.081,3.239-2.081,2.915v4.858l1.8,3.365v8.775h-1.2v9.734a14.62,14.62,0,0,0-9.147,13.459,15.031,15.031,0,0,0,30.055.294C49.622,65.511,44.836,59.8,38.238,57.87Zm-3,24.795a7.38,7.38,0,1,1,7.587-7.377A7.484,7.484,0,0,1,35.24,82.665Z" transform="translate(-19.489 -4.1)"/></g><path class="d" d="M36.435,56.361V48.33a1.2,1.2,0,0,0-1.2-1.2h-1.2V5.3a1.2,1.2,0,0,0-.474-.954L28.189.246A1.2,1.2,0,0,0,26.791.2L18.37,5.9a1.2,1.2,0,0,0-.528,1v5.242a1.212,1.212,0,0,0,.378.876l2.735,2.573L18.19,18.359a1.209,1.209,0,0,0-.348.846v4.558a1.2,1.2,0,0,0,.342.84l2.477,2.537-2.435,2.243a1.2,1.2,0,0,0-.39.882v5.128a1.165,1.165,0,0,0,.36.852l3.239,3.2v7.683h-1.8a1.2,1.2,0,0,0-1.2,1.2v8.043A19.44,19.44,0,0,0,7.424,73.58a19.1,19.1,0,0,0,5.734,13.855,20.158,20.158,0,0,0,14.083,5.836h.2A20.056,20.056,0,0,0,45.894,81.323c2.2-5.368.162-7.531,0-9.636-.03-.975.544-1.946.408-2.719a10.041,10.041,0,0,0-.924-2.688c-1.613-3.773-1.469-5.793-6.057-8.876m5.554,18.7A17.508,17.508,0,0,1,27.265,90.74,17.76,17.76,0,0,1,14.85,85.6a16.726,16.726,0,0,1-5.02-12.127A17.158,17.158,0,0,1,21.945,57.4a1.2,1.2,0,0,0-.726-2.285c-.126.042-.252.1-.378.138v-5.86h1.8a1.2,1.2,0,0,0,1.2-1.2V38.805a1.165,1.165,0,0,0-.36-.852l-3.239-3.2v-4.1L23.2,27.931a1.188,1.188,0,0,0,.384-.852,1.208,1.208,0,0,0-.342-.87l-3-3.071V19.564l3.287-3.3a1.19,1.19,0,0,0,.348-.864,1.206,1.206,0,0,0-.378-.852l-3.257-3.065V7.395l7.179-4.858,4.216,3.221V48.192a1.2,1.2,0,0,0,1.2,1.2h1.2v5.86c-.156-.054-.306-.114-.462-.162a1.2,1.2,0,1,0-.72,2.291A17.067,17.067,0,0,1,45.036,73.118M26.239,51.79V17.6a1.2,1.2,0,1,1,2.4,0V51.79a1.2,1.2,0,1,1-2.4,0Zm0-38.386v-2.4a1.2,1.2,0,1,1,2.4,0v2.4a1.2,1.2,0,1,1-2.4,0ZM10.645,38.6V17a1.2,1.2,0,0,1,2.4,0V38.6a1.2,1.2,0,1,1-2.4,0Zm0-26.99v-2.4a1.2,1.2,0,0,1,2.4,0v2.4a1.2,1.2,0,0,1-2.4,0ZM27.439,65.069a8.579,8.579,0,1,0,8.787,8.577A8.691,8.691,0,0,0,27.439,65.069Zm0,14.754a6.181,6.181,0,1,1,6.388-6.178A6.293,6.293,0,0,1,27.439,79.824Zm0-9.626a3.449,3.449,0,1,0,3.515,3.449A3.487,3.487,0,0,0,27.439,70.2Zm0,4.5a1.052,1.052,0,1,1,1.116-1.05A1.086,1.086,0,0,1,27.439,74.7Zm-5.23,23.823a1.2,1.2,0,0,1-1.164.918,1.1,1.1,0,0,1-.282-.036A26.764,26.764,0,0,1,0,73.214a26.157,26.157,0,0,1,.636-5.47,1.2,1.2,0,1,1,2.339.528A23.806,23.806,0,0,0,2.4,73.244,24.379,24.379,0,0,0,21.327,97.079,1.184,1.184,0,0,1,22.209,98.525Zm7.947.012a1.2,1.2,0,0,1-.972,1.391,12.387,12.387,0,0,1-2.153.192,11.471,11.471,0,0,1-1.2-.06,1.2,1.2,0,1,1,.24-2.387,9.633,9.633,0,0,0,2.687-.108A1.2,1.2,0,0,1,30.156,98.537Z" transform="translate(0.002 0.001)"/><g class="f" transform="translate(32.111 55.779)"><g class="g" transform="translate(-24.228 -1.817)"><path class="h" d="M19.685,0A19.685,19.685,0,1,1,0,19.685,19.685,19.685,0,0,1,19.685,0Z"/><path class="i" d="M 19.68534278869629 3 C 15.22852325439453 3 11.03847312927246 4.735580444335938 7.887022018432617 7.887020111083984 C 4.735584259033203 11.03845977783203 3.000003814697266 15.22851943969727 3.000003814697266 19.68532943725586 C 3.000003814697266 24.14213943481445 4.735584259033203 28.33219909667969 7.887022018432617 31.48363876342773 C 11.03847312927246 34.63507843017578 15.22852325439453 36.37065887451172 19.68534278869629 36.37065887451172 C 24.14216232299805 36.37065887451172 28.33222198486328 34.63507843017578 31.48366165161133 31.48363876342773 C 34.63510131835938 28.33219909667969 36.37068176269531 24.14213943481445 36.37068176269531 19.68532943725586 C 36.37068176269531 15.22851943969727 34.63510131835938 11.03845977783203 31.48366165161133 7.887020111083984 C 28.33222198486328 4.735580444335938 24.14216232299805 3 19.68534278869629 3 M 19.68534278869629 0 C 30.5572624206543 0 39.37068176269531 8.813419342041016 39.37068176269531 19.68532943725586 C 39.37068176269531 30.5572395324707 30.5572624206543 39.37065887451172 19.68534278869629 39.37065887451172 C 8.813432693481445 39.37065887451172 3.814697265625e-06 30.5572395324707 3.814697265625e-06 19.68532943725586 C 3.814697265625e-06 8.813419342041016 8.813432693481445 0 19.68534278869629 0 Z"/></g></g></g></g></svg>