<svg xmlns="http://www.w3.org/2000/svg" viewBox="0 0 181.025 154.658">
  <defs>
    <style>
      .cls-1 {
        fill: #61c4f2;
      }

      .cls-2 {
        fill: #263357;
      }

      .cls-3 {
        fill: #39d894;
      }

      .cls-4 {
        fill: #00ba26;
      }
    </style>
  </defs>
  <g id="Group_508" data-name="Group 508" transform="translate(-1164 -364)">
    <g id="Group_469" data-name="Group 469" transform="translate(917 362)">
      <g id="Group_466" data-name="Group 466" transform="translate(247 -27)">
        <rect id="Rectangle_240" data-name="Rectangle 240" class="cls-1" width="12.9" height="4" transform="translate(18.6 125.5)"/>
      </g>
      <g id="Group_467" data-name="Group 467" transform="translate(247 -27)">
        <path id="Path_378" data-name="Path 378" class="cls-1" d="M76,134.4H40.2c-5.5,0-9.4-3.4-9.4-8.3v-1.3a2,2,0,0,1,4,0v1.3c0,3.2,2.9,4.3,5.4,4.3H76a2,2,0,0,1,0,4Z"/>
      </g>
      <g id="Group_468" data-name="Group 468" transform="translate(247 -27)">
        <path id="Path_379" data-name="Path 379" class="cls-1" d="M55.5,127.1c.5-1.4,1.7-2.7,2.1-4,0-.1.1-.1.1-.2l-.4-.8V122a4.8,4.8,0,0,1-.9-1.9,4.9,4.9,0,0,1-.7-2.5,12.777,12.777,0,0,1,1.4-6.4H55.2a4.96,4.96,0,0,0-4.7,5v1.7a4.71,4.71,0,0,0,3.4,4.5,4.835,4.835,0,0,0-3.4,4.5v1.7a4.781,4.781,0,0,0,4.7,4.8h.3A8.559,8.559,0,0,1,55.5,127.1Z"/>
      </g>
      <path id="Path_380" data-name="Path 380" class="cls-2" d="M11.5,127.3A3.478,3.478,0,0,0,8,123.8a3.5,3.5,0,1,0,0,7A3.478,3.478,0,0,0,11.5,127.3Zm70.8-15.7a5.56,5.56,0,0,1,1.4,3.8v3.8a5.521,5.521,0,0,1-1.6,3.9,5.521,5.521,0,0,1,1.6,3.9v3.8a5.7,5.7,0,0,1-5.7,5.7H38.8a9.61,9.61,0,0,1-7.2-3.3,1.483,1.483,0,0,1-.7.1H18.6v3.3a2.006,2.006,0,0,1-2,2H2a2,2,0,0,1,0-4H14.6V95.5H2a2,2,0,0,1,0-4H16.6a2.006,2.006,0,0,1,2,2v2.9h8.1a16.66,16.66,0,0,1,8.4-11.6,12.318,12.318,0,0,0,6-7.3,49.589,49.589,0,0,0,1.8-13.8,2.006,2.006,0,0,1,2-2h2.3A10.18,10.18,0,0,1,57.5,71.8V87.3a6.388,6.388,0,0,1,2.8-.6H78a5.7,5.7,0,0,1,5.7,5.7v3.8a5.521,5.521,0,0,1-1.6,3.9,5.521,5.521,0,0,1,1.6,3.9v3.8A6.733,6.733,0,0,1,82.3,111.6Zm-4.4,2H60.4a2.8,2.8,0,0,0-2.8,2.8v1.7a2.8,2.8,0,0,0,2.8,2.8H78.1a1.752,1.752,0,0,0,1.7-1.7v-3.8a1.752,1.752,0,0,0-1.7-1.7h-.2Zm-17.5-4H78a1.752,1.752,0,0,0,1.7-1.7v-3.8a1.752,1.752,0,0,0-1.7-1.7H60.2a2.8,2.8,0,0,0-2.8,2.8v1.7a2.8,2.8,0,0,0,2.8,2.8h.2ZM57.5,93.5v1.7A2.8,2.8,0,0,0,60.3,98H78a1.752,1.752,0,0,0,1.7-1.7V92.5A1.752,1.752,0,0,0,78,90.8H60.2A2.689,2.689,0,0,0,57.5,93.5Zm-18.7,39H54.2a6.388,6.388,0,0,1-.6-2.8V128a6.857,6.857,0,0,1,2.2-5,6.5,6.5,0,0,1-2.2-5v-1.7a6.655,6.655,0,0,1,1.9-4.7l-.4-.4c-4.2,4-11.6,4.1-11.9,4.1h0a1.844,1.844,0,0,1-2-1.8,1.923,1.923,0,0,1,2-1.9c2.4,0,8.8-1,10.4-4.7h0v-1.7a6.857,6.857,0,0,1,2.2-5,6.5,6.5,0,0,1-2.2-5V93.5a6.461,6.461,0,0,1,1-3.4,2.062,2.062,0,0,1-1-1.7V71.9a6.17,6.17,0,0,0-6.3-6.1H47a47.745,47.745,0,0,1-2,12.9,16.558,16.558,0,0,1-7.9,9.6C34,90,30.3,93.6,30.3,101a2,2,0,0,1-4,0v-.6H18.6v29H29.7a7.487,7.487,0,0,1-.2-2.1c0-2.4.9-3.3,2-3.3a2.006,2.006,0,0,1,2,2v1.3A5.25,5.25,0,0,0,38.8,132.5ZM79.7,127a1.752,1.752,0,0,0-1.7-1.7H60.4a2.8,2.8,0,0,0-2.8,2.8v1.7a2.8,2.8,0,0,0,2.8,2.8c18.6,0,19.4-.8,19.4-1.7V127Z" transform="translate(247 -27)"/>
    </g>
    <g id="Group_507" data-name="Group 507" transform="translate(1190.025 364)">
      <g id="Group_470" data-name="Group 470">
        <path id="Path_381" data-name="Path 381" class="cls-3" d="M59.6,128.8H49V112.6L61.1,109Z"/>
      </g>
      <g id="Group_471" data-name="Group 471">
        <path id="Path_382" data-name="Path 382" class="cls-3" d="M124.7,23.8V13.1h28.8V128.7h-10V24Z"/>
      </g>
      <g id="Group_472" data-name="Group 472">
        <path id="Path_383" data-name="Path 383" class="cls-3" d="M80,13.8H48.9v40l10.7,1V24.4H81.4Z"/>
      </g>
      <g id="Group_474" data-name="Group 474">
        <path id="Path_385" data-name="Path 385" class="cls-1" d="M122.6,10.7h-8V3.8A1.793,1.793,0,0,0,112.8,2H92.5a1.793,1.793,0,0,0-1.8,1.8v6.9h-8a2.9,2.9,0,0,0-2.9,2.9V28.1h45.7V13.6A2.9,2.9,0,0,0,122.6,10.7Z"/>
      </g>
      <g id="Group_475" data-name="Group 475">
        <path id="Path_386" data-name="Path 386" class="cls-2" d="M153,130.7h-8.1a2,2,0,0,1,0-4H151V15.5H124.8a2,2,0,0,1,0-4H153a2.006,2.006,0,0,1,2,2V128.7A2.074,2.074,0,0,1,153,130.7Z"/>
      </g>
      <g id="Group_476" data-name="Group 476">
        <path id="Path_387" data-name="Path 387" class="cls-2" d="M55.8,130.7H49a2.006,2.006,0,0,1-2-2V112a2,2,0,0,1,4,0v14.7h4.8a2,2,0,1,1,0,4Z"/>
      </g>
      <g id="Group_477" data-name="Group 477">
        <path id="Path_388" data-name="Path 388" class="cls-2" d="M47,52.5v-39a2.006,2.006,0,0,1,2-2H79.5a2,2,0,0,1,0,4H51v37A2,2,0,1,1,47,52.5Z"/>
      </g>
      <g id="Group_478" data-name="Group 478">
        <path id="Path_389" data-name="Path 389" class="cls-2" d="M129.8,51.9h-27a2,2,0,0,1,0-4h27a2,2,0,0,1,0,4Z"/>
      </g>
      <g id="Group_479" data-name="Group 479">
        <path id="Path_390" data-name="Path 390" class="cls-2" d="M129.8,64.1h-27a2,2,0,0,1,0-4h27a2,2,0,0,1,0,4Z"/>
      </g>
      <g id="Group_480" data-name="Group 480">
        <path id="Path_391" data-name="Path 391" class="cls-2" d="M129.8,80.9h-27a2,2,0,0,1,0-4h27a2,2,0,0,1,0,4Z"/>
      </g>
      <g id="Group_481" data-name="Group 481">
        <path id="Path_392" data-name="Path 392" class="cls-2" d="M112.4,93.1h-9.6a2,2,0,0,1,0-4h9.6a2,2,0,0,1,0,4Z"/>
      </g>
      <g id="Group_482" data-name="Group 482">
        <path id="Path_393" data-name="Path 393" class="cls-2" d="M129.8,109.9h-27a2,2,0,0,1,0-4h27a2,2,0,0,1,0,4Z"/>
      </g>
      <g id="Group_483" data-name="Group 483">
        <path id="Path_394" data-name="Path 394" class="cls-2" d="M129.8,122.1h-27a2,2,0,0,1,0-4h27a2,2,0,0,1,0,4Z"/>
      </g>
      <g id="Group_484" data-name="Group 484">
        <path id="Path_395" data-name="Path 395" class="cls-2" d="M124.8,29.8H79.5a2.006,2.006,0,0,1-2-2V16.4a7.7,7.7,0,0,1,7.7-7.7h2.9a2,2,0,0,1,0,4H85.2a3.8,3.8,0,0,0-3.8,3.8V26h41.3V16.5a3.8,3.8,0,0,0-3.8-3.8h-5a2,2,0,0,1,0-4h5a7.7,7.7,0,0,1,7.7,7.7V27.9A1.661,1.661,0,0,1,124.8,29.8Z"/>
      </g>
      <g id="Group_485" data-name="Group 485">
        <path id="Path_396" data-name="Path 396" class="cls-2" d="M110.7,16.9H93.6a5.335,5.335,0,0,1-5.3-5.3V5.3A5.335,5.335,0,0,1,93.6,0h17.1A5.335,5.335,0,0,1,116,5.3v6.3A5.335,5.335,0,0,1,110.7,16.9ZM93.6,4a1.324,1.324,0,0,0-1.3,1.3v6.3a1.324,1.324,0,0,0,1.3,1.3h17.1a1.324,1.324,0,0,0,1.3-1.3V5.3A1.324,1.324,0,0,0,110.7,4Z"/>
      </g>
      <g id="Group_486" data-name="Group 486">
        <path id="Path_397" data-name="Path 397" class="cls-1" d="M123,142.6v-2H46.9v2c0,6.5,6.2,10.5,10,10H133A10.029,10.029,0,0,1,123,142.6Z"/>
      </g>
      <g id="Group_490" data-name="Group 490">
        <g id="Group_487" data-name="Group 487">
          <path id="Path_398" data-name="Path 398" class="cls-2" d="M56.8,53.9V24a2.006,2.006,0,0,1,2-2h19a2,2,0,0,1,0,4h-17V53.9A2,2,0,1,1,56.8,53.9Z"/>
        </g>
        <g id="Group_488" data-name="Group 488">
          <path id="Path_399" data-name="Path 399" class="cls-2" d="M56.9,139.8V109.4a2,2,0,0,1,4,0v30.4A2,2,0,1,1,56.9,139.8Z"/>
        </g>
        <g id="Group_489" data-name="Group 489">
          <path id="Path_400" data-name="Path 400" class="cls-2" d="M131,152.6a2.006,2.006,0,0,1,2-2,8.024,8.024,0,0,0,8-8V26H125.8a2,2,0,0,1,0-4H143a2.006,2.006,0,0,1,2,2V142.6C145,153.7,131,157.4,131,152.6Z"/>
        </g>
      </g>
      <g id="Group_491" data-name="Group 491">
        <path id="Path_401" data-name="Path 401" class="cls-2" d="M133,154.6H57a12.035,12.035,0,0,1-12-12v-2a2.006,2.006,0,0,1,2-2h76a2.006,2.006,0,0,1,2,2v2a7.96,7.96,0,0,0,8,8,2.006,2.006,0,0,1,2,2h0A2.006,2.006,0,0,1,133,154.6Zm-8.9-4a11.9,11.9,0,0,1-3.1-8H49a8.024,8.024,0,0,0,8,8Z"/>
      </g>
      <g id="Group_500" data-name="Group 500">
        <path id="Path_409" data-name="Path 409" class="cls-2" d="M84.3,68.5H74.4a6.914,6.914,0,0,1-6.9-6.9V51.7a6.914,6.914,0,0,1,6.9-6.9h9.9a6.914,6.914,0,0,1,6.9,6.9v9.9A6.914,6.914,0,0,1,84.3,68.5ZM74.4,48.7a3.009,3.009,0,0,0-3,3v9.9a3.009,3.009,0,0,0,3,3h9.9a3.009,3.009,0,0,0,3-3V51.7a3.009,3.009,0,0,0-3-3H74.4Z"/>
      </g>
      <g id="Group_501" data-name="Group 501">
        <path id="Path_410" data-name="Path 410" class="cls-2" d="M84.3,98.2H74.4a6.914,6.914,0,0,1-6.9-6.9V81.4a6.914,6.914,0,0,1,6.9-6.9h9.9a6.914,6.914,0,0,1,6.9,6.9v9.9A6.914,6.914,0,0,1,84.3,98.2ZM74.4,78.4a3.009,3.009,0,0,0-3,3v9.9a3.009,3.009,0,0,0,3,3c15,0,12.9,2,12.9-12.9a3.009,3.009,0,0,0-3-3Z"/>
      </g>
      <g id="Group_502" data-name="Group 502">
        <path id="Path_411" data-name="Path 411" class="cls-2" d="M84.3,128H74.4a6.914,6.914,0,0,1-6.9-6.9v-9.9a6.914,6.914,0,0,1,6.9-6.9h9.9a6.914,6.914,0,0,1,6.9,6.9v9.9A6.914,6.914,0,0,1,84.3,128Zm-9.9-19.8a3.009,3.009,0,0,0-3,3v9.9a3.009,3.009,0,0,0,3,3h9.9a3.009,3.009,0,0,0,3-3v-9.9a3.009,3.009,0,0,0-3-3Z"/>
      </g>
      <g id="Group_503" data-name="Group 503">
        <path id="Path_412" data-name="Path 412" class="cls-4" d="M74.1,56a1.981,1.981,0,0,1,2.7-2.9L81,57l8.7-9.7c1.7-2,4.7.7,3,2.6C81.8,62.1,82.4,61.7,81.3,61.8,80.1,61.8,80.3,61.7,74.1,56Z"/>
      </g>
      <g id="Group_504" data-name="Group 504">
        <path id="Path_413" data-name="Path 413" class="cls-4" d="M74.1,86.2a1.981,1.981,0,0,1,2.7-2.9L81,87.2l8.7-9.7c1.7-2,4.7.7,3,2.6C81.8,92.3,82.4,91.9,81.3,92,80.1,92,80.3,91.9,74.1,86.2Z"/>
      </g>
      <g id="Group_505" data-name="Group 505">
        <path id="Path_414" data-name="Path 414" class="cls-4" d="M74.1,114.9a1.981,1.981,0,0,1,2.7-2.9l4.2,3.9,8.7-9.7c1.7-2,4.7.7,3,2.6C81.8,121,82.4,120.7,81.3,120.7,80.1,120.7,80.3,120.6,74.1,114.9Z"/>
      </g>
    </g>
  </g>
</svg>
