<svg xmlns="http://www.w3.org/2000/svg" width="308.737" height="33.03" viewBox="0 0 308.737 33.03"><defs><style>.a{fill:#81b441;}</style></defs><g transform="translate(-8076 -1517)"><path class="a" d="M19.829,8.521c-.79-.431-3.016-.144-5.673.646-4.667,3.159-8.617,7.9-8.9,15.438-.072.215-.5,0-.574-.072a10.509,10.509,0,0,1-.718-8.617c.215-.359-.431-.718-.574-.646a14.752,14.752,0,0,0-1.867,2.37,11.508,11.508,0,1,0,20.105,11.2c3.59-6.462.287-19.172-1.8-20.321Z" transform="translate(8075.964 1514.654)"/><path d="M50.745,10.432c-6.606,0-11.345,4.883-11.345,11.632,0,6.821,4.739,11.561,11.561,11.561a10.981,10.981,0,0,0,8.329-3.3,2.47,2.47,0,0,0,.718-1.652A1.83,1.83,0,0,0,58.069,26.8a2.144,2.144,0,0,0-1.58.718,7.631,7.631,0,0,1-5.529,2.3A6.87,6.87,0,0,1,44,23.428H58.859a2.073,2.073,0,0,0,2.37-2.3,11.172,11.172,0,0,0-.072-1.436c-.718-5.816-4.667-9.263-10.412-9.263Zm0,3.662c3.59,0,5.888,2.3,5.96,5.96H44A6.708,6.708,0,0,1,50.745,14.094Zm24.773-3.662a8.063,8.063,0,0,0-7.109,4.093V13.017a2.164,2.164,0,1,0-4.308,0V30.824a2.223,2.223,0,0,0,2.226,2.513,2.266,2.266,0,0,0,2.3-2.513v-9.55c0-4.165,2.37-7.037,5.744-7.037,3.231,0,4.883,2.154,4.883,6.534V30.824a2.236,2.236,0,0,0,2.3,2.513,2.192,2.192,0,0,0,2.226-2.513V19.335c-.072-4.236-2.226-8.9-8.258-8.9Zm28.65.287a2.257,2.257,0,0,0-2.226,1.8L95.767,28.1,89.592,12.514a2.391,2.391,0,0,0-2.3-1.8A2.289,2.289,0,0,0,85,12.873a2.77,2.77,0,0,0,.287,1.292l7.109,16.8a3.442,3.442,0,0,0,3.231,2.441,3.384,3.384,0,0,0,3.231-2.441l7.18-16.874a3.905,3.905,0,0,0,.287-1.221A2,2,0,0,0,104.168,10.719Zm13.14-.287a12.75,12.75,0,0,0-7.611,2.3,2.23,2.23,0,0,0-1.005,1.8,1.763,1.763,0,0,0,1.723,1.8,2.147,2.147,0,0,0,1.364-.5,8.781,8.781,0,0,1,5.1-1.652c3.375,0,5.242,1.723,5.242,4.667v.5c-7.54,0-15.151.933-15.151,7.468,0,4.667,4.021,6.821,7.97,6.821a8.353,8.353,0,0,0,7.324-3.662v1.149a2.067,2.067,0,0,0,2.154,2.3,2.026,2.026,0,0,0,2.011-2.3V19.12c.072-5.457-3.3-8.688-9.119-8.688Zm3.949,12.207h.933v1.077c0,3.806-2.441,6.247-6.175,6.247-1.005,0-4.38-.215-4.38-3.3,0-3.59,5.457-4.021,9.622-4.021Zm17.018-7.827c2.011,0,2.082-1.508,2.082-1.867a1.833,1.833,0,0,0-2.082-1.867h-4.093V6.913a2.242,2.242,0,1,0-4.452,0V26.444c0,4.524,2.226,6.893,6.462,6.893a8.234,8.234,0,0,0,2.872-.5,2.073,2.073,0,0,0,1.221-1.8,1.735,1.735,0,0,0-1.8-1.8,3.7,3.7,0,0,0-.79.144,4.942,4.942,0,0,1-.933.144c-1.723,0-2.513-1.149-2.513-3.518v-11.2Zm15.007-4.38c-6.822,0-11.776,4.883-11.776,11.561a11.539,11.539,0,0,0,3.375,8.329,12.081,12.081,0,0,0,8.4,3.3,11.5,11.5,0,0,0,11.848-11.632c0-6.678-5.026-11.561-11.848-11.561Zm0,19.316c-4.667,0-7.18-3.949-7.18-7.755,0-5.314,3.734-7.755,7.18-7.755s7.18,2.441,7.18,7.755C160.391,27.306,156.729,29.747,153.283,29.747Z" transform="translate(8064.864 1515.76)"/><path class="a" d="M231.54,33.03a9.016,9.016,0,0,1-5.242-1.58,10.217,10.217,0,0,1-3.734-4.236,13.166,13.166,0,0,1-1.364-5.888v-.933a13.354,13.354,0,0,1,1.293-5.888,10.424,10.424,0,0,1,3.59-4.236,8.977,8.977,0,0,1,5.026-1.508,8.2,8.2,0,0,1,6.534,2.872,10.854,10.854,0,0,1,2.513,7.4v1.149a.644.644,0,0,1-.646.646H223.641v.5a10.363,10.363,0,0,0,1.077,4.667,8.1,8.1,0,0,0,2.872,3.3,7.114,7.114,0,0,0,3.949,1.221,8.555,8.555,0,0,0,3.518-.646,6.859,6.859,0,0,0,2.513-2.082.681.681,0,0,1,.933-.144l.79.574a.681.681,0,0,1,.144.933,9.032,9.032,0,0,1-7.9,3.877Zm-7.683-14.648h13.93a9.376,9.376,0,0,0-.862-3.447,6.768,6.768,0,0,0-2.37-2.729,5.972,5.972,0,0,0-3.375-.933,6.582,6.582,0,0,0-4.954,2.154A8.7,8.7,0,0,0,223.857,18.382ZM244.178,32.6H243.1a.643.643,0,0,1-.646-.646V.646A.643.643,0,0,1,243.1,0h1.077a.644.644,0,0,1,.646.646V32.025A.633.633,0,0,1,244.178,32.6Zm13.284.431a9.016,9.016,0,0,1-5.242-1.58,10.216,10.216,0,0,1-3.734-4.236,13.166,13.166,0,0,1-1.364-5.888v-.933a13.353,13.353,0,0,1,1.293-5.888A10.424,10.424,0,0,1,252,10.268a8.976,8.976,0,0,1,5.026-1.508,8.2,8.2,0,0,1,6.534,2.872,10.854,10.854,0,0,1,2.513,7.4v1.149a.644.644,0,0,1-.646.646H249.563v.5a10.363,10.363,0,0,0,1.077,4.667,8.1,8.1,0,0,0,2.872,3.3,7.115,7.115,0,0,0,3.949,1.221,8.794,8.794,0,0,0,3.518-.646,6.861,6.861,0,0,0,2.513-2.082.681.681,0,0,1,.933-.144l.79.574a.681.681,0,0,1,.144.933,9.031,9.031,0,0,1-7.9,3.877Zm-7.755-14.648h13.93a9.375,9.375,0,0,0-.862-3.447,6.768,6.768,0,0,0-2.37-2.729,6.135,6.135,0,0,0-3.375-.933,6.583,6.583,0,0,0-4.955,2.154A9.709,9.709,0,0,0,249.707,18.382ZM299.468,32.6h-1.077a.643.643,0,0,1-.646-.646V17.664a7.862,7.862,0,0,0-1.292-4.955,4.705,4.705,0,0,0-4.021-1.436,6.984,6.984,0,0,0-5.816,2.944,6.343,6.343,0,0,0-1.364,3.159V32.025a.644.644,0,0,1-.646.646h-1.077a.644.644,0,0,1-.646-.646V17.161a6.8,6.8,0,0,0-1.292-4.524c-.79-.933-2.226-1.364-4.093-1.364a6.255,6.255,0,0,0-5.385,2.944,9.914,9.914,0,0,0-1.723,3.877V31.953a.644.644,0,0,1-.646.646h-1.149a.644.644,0,0,1-.646-.646V9.837a.644.644,0,0,1,.646-.646h1.149a.644.644,0,0,1,.646.646v2.657a7.442,7.442,0,0,1,2.154-2.082,8.364,8.364,0,0,1,5.026-1.58,8.244,8.244,0,0,1,4.955,1.364A5.575,5.575,0,0,1,284.6,13a9.139,9.139,0,0,1,2.657-2.585A9.747,9.747,0,0,1,292.574,8.9a7.462,7.462,0,0,1,5.816,2.226c1.293,1.436,1.939,3.662,1.939,6.534V32.1A1.178,1.178,0,0,1,299.468,32.6Zm12.781.431a9.016,9.016,0,0,1-5.242-1.58,10.216,10.216,0,0,1-3.734-4.236,13.164,13.164,0,0,1-1.364-5.888v-.933A13.353,13.353,0,0,1,303.2,14.5a10.424,10.424,0,0,1,3.59-4.236,8.977,8.977,0,0,1,5.026-1.508,8.2,8.2,0,0,1,6.534,2.872,10.855,10.855,0,0,1,2.513,7.4v1.149a.644.644,0,0,1-.646.646H304.35v.5a10.364,10.364,0,0,0,1.077,4.667,8.1,8.1,0,0,0,2.872,3.3,7.114,7.114,0,0,0,3.949,1.221,8.555,8.555,0,0,0,3.518-.646,6.86,6.86,0,0,0,2.513-2.082.681.681,0,0,1,.933-.144l.79.574a.681.681,0,0,1,.144.933,9.032,9.032,0,0,1-7.9,3.877Zm-7.755-14.648h13.93a9.378,9.378,0,0,0-.862-3.447,6.768,6.768,0,0,0-2.37-2.729,6.135,6.135,0,0,0-3.375-.933,6.583,6.583,0,0,0-4.955,2.154A9.71,9.71,0,0,0,304.494,18.382ZM339.463,32.6h-1.077a.644.644,0,0,1-.646-.646V17.52a7.408,7.408,0,0,0-1.292-4.811,5.061,5.061,0,0,0-4.021-1.436,5.863,5.863,0,0,0-4.452,1.867,9.245,9.245,0,0,0-2.585,4.811V32.025a.644.644,0,0,1-.646.646h-1.077a.644.644,0,0,1-.646-.646V9.909a.644.644,0,0,1,.646-.646h1.077a.644.644,0,0,1,.646.646v2.585a9.546,9.546,0,0,1,2.082-2.082,8.517,8.517,0,0,1,5.026-1.58,7.462,7.462,0,0,1,5.816,2.226c1.221,1.436,1.867,3.662,1.939,6.534V32.025A.953.953,0,0,1,339.463,32.6Zm10.843.431a4.614,4.614,0,0,1-3.949-1.58,7.322,7.322,0,0,1-1.221-4.6V11.7h-3.375a.644.644,0,0,1-.646-.646V9.981a.644.644,0,0,1,.646-.646h3.375V4.021a.644.644,0,0,1,.646-.646h1.149a.644.644,0,0,1,.646.646V9.335h4.308a.644.644,0,0,1,.646.646v1.077a.644.644,0,0,1-.646.646h-4.308V26.711a5.648,5.648,0,0,0,.646,3.088c.574.862,1.867.933,4.093.646a.711.711,0,0,1,.79.574l.215,1.005a.723.723,0,0,1-.431.79,11.056,11.056,0,0,1-2.585.215Zm12.494,0a11.021,11.021,0,0,1-6.391-1.8,5.73,5.73,0,0,1-2.585-4.883.644.644,0,0,1,.646-.646h1.077a.643.643,0,0,1,.646.646,3.717,3.717,0,0,0,1.723,3.088,8.27,8.27,0,0,0,4.739,1.149,7.363,7.363,0,0,0,4.38-1.221,3.383,3.383,0,0,0,1.58-2.8c0-2.37-2.082-3.877-6.319-4.811-2.872-.646-4.883-1.364-6.032-2.37a5.488,5.488,0,0,1-1.867-4.308,5.453,5.453,0,0,1,2.3-4.524,9.257,9.257,0,0,1,5.744-1.723,9.877,9.877,0,0,1,6.175,1.867,6.362,6.362,0,0,1,2.441,5.1.644.644,0,0,1-.646.646h-1.149a.644.644,0,0,1-.646-.646,3.7,3.7,0,0,0-1.651-3.159,7.3,7.3,0,0,0-4.452-1.364,6.531,6.531,0,0,0-4.165,1.149,3.249,3.249,0,0,0-1.436,2.657,2.977,2.977,0,0,0,.5,1.939,4,4,0,0,0,1.8,1.292,22.123,22.123,0,0,0,4.021,1.292,17.317,17.317,0,0,1,4.524,1.58,6.781,6.781,0,0,1,2.585,2.3,5.688,5.688,0,0,1,.79,3.231,5.52,5.52,0,0,1-2.441,4.739,10.218,10.218,0,0,1-5.888,1.58Z" transform="translate(8013.608 1517)"/></g></svg>