<svg xmlns="http://www.w3.org/2000/svg" viewBox="0 0 330.007 121.995">
  <defs>
    <style>
      .cls-1 {
        fill: #61c4f2;
      }

      .cls-2 {
        fill: #263357;
      }

      .cls-3 {
        fill: #f86464;
      }
    </style>
  </defs>
  <g id="Group_570" data-name="Group 570" transform="translate(-1090 -388.303)">
    <g id="Group_433" data-name="Group 433" transform="translate(1089.996 416.879)">
      <g id="Group_413" data-name="Group 413" transform="translate(8.952 31.697)">
        <path id="Path_329" data-name="Path 329" class="cls-1" d="M94.96,48.946c0,7.708-8.254,12.892-14.8,12.892H29.682c-15.143,0-10.1-16.03-10.982-15.347C4.717,56.926,21.429,72,21.429,72s6.071.477,14.665.887V73.3c5.184.136,31.1.2,36.288.136v-.341a82.189,82.189,0,0,0,10.5-1.16C100.758,68.659,94.96,48.946,94.96,48.946Z" transform="translate(-13.122 -46.469)"/>
      </g>
      <g id="Group_414" data-name="Group 414" transform="translate(25.823 5.333)">
        <path id="Path_330" data-name="Path 330" class="cls-2" d="M40.614,10.057a1.468,1.468,0,1,1-.546-2.046A1.468,1.468,0,0,1,40.614,10.057Z" transform="translate(-37.855 -7.818)"/>
      </g>
      <g id="Group_415" data-name="Group 415" transform="translate(59.753 29.437)">
        <path id="Path_331" data-name="Path 331" class="cls-2" d="M88.35,45.914a1.468,1.468,0,1,1,1.5-2.524C91.556,44.277,90.055,46.869,88.35,45.914Z" transform="translate(-87.599 -43.156)"/>
      </g>
      <g id="Group_416" data-name="Group 416" transform="translate(85.4 60.882)">
        <path id="Path_332" data-name="Path 332" class="cls-2" d="M125.95,92.014a1.468,1.468,0,1,1,1.5-2.524A1.468,1.468,0,0,1,125.95,92.014Z" transform="translate(-125.199 -89.256)"/>
      </g>
      <g id="Group_417" data-name="Group 417" transform="translate(40.313 32.029)">
        <path id="Path_333" data-name="Path 333" class="cls-2" d="M59.85,49.714a1.468,1.468,0,1,1,1.5-2.524A1.468,1.468,0,0,1,59.85,49.714Z" transform="translate(-59.099 -46.955)"/>
      </g>
      <g id="Group_418" data-name="Group 418" transform="translate(0.004 9.07)">
        <path id="Path_334" data-name="Path 334" class="cls-2" d="M11.188,67.322c-16.1-10.027-15.143-36.9,4.979-43.791a20.849,20.849,0,0,1,4.979-9.754,1.377,1.377,0,0,1,2.046,1.842,18.194,18.194,0,0,0-4.434,9.208,1.416,1.416,0,0,1-.955,1.091C-.613,31.511-1.909,56,12.62,65A1.363,1.363,0,1,1,11.188,67.322Z" transform="translate(-0.004 -13.297)"/>
      </g>
      <g id="Group_419" data-name="Group 419" transform="translate(79.676 4.898)">
        <path id="Path_335" data-name="Path 335" class="cls-2" d="M127.784,59.989a23.869,23.869,0,0,0-4.911-39.017,1.506,1.506,0,0,1-.75-.955,22.312,22.312,0,0,0-4.979-10.573,1.38,1.38,0,0,1,2.115-1.773,25.647,25.647,0,0,1,5.457,11.187,26.645,26.645,0,0,1,4.911,43.177A1.377,1.377,0,0,1,127.784,59.989Z" transform="translate(-116.806 -7.181)"/>
      </g>
      <g id="Group_420" data-name="Group 420" transform="translate(7.368)">
        <path id="Path_336" data-name="Path 336" class="cls-2" d="M78.465,59H26.147C17.416,59,10.8,51.636,10.8,41.813A16.493,16.493,0,0,1,26.625,25.443,13.871,13.871,0,0,1,38.7,9.959a1.375,1.375,0,0,1,.341,2.728,11.134,11.134,0,0,0-9.822,11.05c0,2.524.819,3.069.068,3.956-.546.682-1.16.477-1.91.477A13.657,13.657,0,0,0,13.46,41.813c0,8.254,5.389,14.461,12.619,14.461H78.465A16.245,16.245,0,0,0,94.631,39.9,16.516,16.516,0,0,0,82.421,24.01c-.682-.136-1.637-.75-1.637-2.456a18.828,18.828,0,0,0-37.175-4.229,1.365,1.365,0,0,1-2.66-.614,21.558,21.558,0,0,1,42.564,4.775A19.131,19.131,0,0,1,78.465,59Zm4.3-37.721Zm0,0Z" transform="translate(-10.8)"/>
      </g>
      <g id="Group_421" data-name="Group 421" transform="translate(124.128 38.249) rotate(-90)">
        <path id="Path_337" data-name="Path 337" class="cls-2" d="M0,60.878V1.33a1.365,1.365,0,0,1,2.728,0V60.878A1.364,1.364,0,1,1,0,60.878Z" transform="translate(0)"/>
      </g>
      <g id="Group_435" data-name="Group 435" transform="translate(109.439 27.064) rotate(-90)">
        <path id="Path_337-2" data-name="Path 337" class="cls-2" d="M0,54.057V1.33a1.365,1.365,0,0,1,2.728,0V54.057A1.364,1.364,0,1,1,0,54.057Z" transform="translate(0)"/>
      </g>
      <g id="Group_437" data-name="Group 437" transform="translate(112.532 49.435) rotate(-90)">
        <path id="Path_337-3" data-name="Path 337" class="cls-2" d="M0,32.23V1.33a1.365,1.365,0,0,1,2.728,0v30.9A1.364,1.364,0,1,1,0,32.23Z" transform="translate(0)"/>
      </g>
      <g id="Group_422" data-name="Group 422" transform="translate(184.324 41.114) rotate(-90)">
        <path id="Path_338" data-name="Path 338" class="cls-3" d="M4.229,8.458A4.25,4.25,0,0,1,0,4.229,4.25,4.25,0,0,1,4.229,0,4.25,4.25,0,0,1,8.458,4.229,4.207,4.207,0,0,1,4.229,8.458Z" transform="translate(0)"/>
      </g>
      <g id="Group_434" data-name="Group 434" transform="translate(162.814 29.929) rotate(-90)">
        <path id="Path_338-2" data-name="Path 338" class="cls-3" d="M4.229,8.458A4.25,4.25,0,0,1,0,4.229,4.25,4.25,0,0,1,4.229,0,4.25,4.25,0,0,1,8.458,4.229,4.207,4.207,0,0,1,4.229,8.458Z" transform="translate(0)"/>
      </g>
      <g id="Group_436" data-name="Group 436" transform="translate(144.08 52.299) rotate(-90)">
        <path id="Path_338-3" data-name="Path 338" class="cls-3" d="M4.229,8.458A4.25,4.25,0,0,1,0,4.229,4.25,4.25,0,0,1,4.229,0,4.25,4.25,0,0,1,8.458,4.229,4.207,4.207,0,0,1,4.229,8.458Z" transform="translate(0)"/>
      </g>
      <g id="Group_431" data-name="Group 431" transform="translate(37.252 15.056)">
        <path id="Path_346" data-name="Path 346" class="cls-2" d="M56.036,35.938a21.692,21.692,0,0,1-.819-12.824,1.365,1.365,0,0,1,2.66.614,18.54,18.54,0,0,0,.75,11.187A1.393,1.393,0,0,1,56.036,35.938Z" transform="translate(-54.612 -22.073)"/>
      </g>
      <g id="Group_432" data-name="Group 432" transform="translate(62.202 21.526)">
        <path id="Path_347" data-name="Path 347" class="cls-2" d="M91.742,35.816a20.559,20.559,0,0,1,24.692-.273,1.364,1.364,0,1,1-1.637,2.183A17.9,17.9,0,0,0,93.379,38,1.364,1.364,0,1,1,91.742,35.816Z" transform="translate(-91.189 -31.558)"/>
      </g>
    </g>
    <g id="Group_438" data-name="Group 438" transform="translate(1301.05 388.303)">
      <g id="Group_434-2" data-name="Group 434" transform="translate(50.079 99.418)">
        <path id="Path_348" data-name="Path 348" class="cls-1" d="M61,125.7c0,2.873,1.724,5.254,3.859,5.254s3.859-2.381,3.859-5.254v-4.6H61Z" transform="translate(-61 -121.1)"/>
      </g>
      <g id="Group_435-2" data-name="Group 435" transform="translate(8.045 9.031)">
        <path id="Path_349" data-name="Path 349" class="cls-3" d="M97.807,11H13.741A3.941,3.941,0,0,0,9.8,14.941v5.911h91.948V14.941A3.89,3.89,0,0,0,97.807,11Z" transform="translate(-9.8 -11)"/>
      </g>
      <g id="Group_436-2" data-name="Group 436" transform="translate(26.189 112.143)">
        <path id="Path_350" data-name="Path 350" class="cls-2" d="M85.919,146.452H33.542A1.647,1.647,0,0,1,31.9,144.81v-6.568a1.647,1.647,0,0,1,1.642-1.642H85.919a1.647,1.647,0,0,1,1.642,1.642v6.568A1.647,1.647,0,0,1,85.919,146.452Zm-50.735-3.284H84.277v-3.284H35.184Z" transform="translate(-31.9 -136.6)"/>
      </g>
      <g id="Group_437-2" data-name="Group 437" transform="translate(48.437 97.407)">
        <path id="Path_351" data-name="Path 351" class="cls-2" d="M64.5,131.744c-3.038,0-5.5-3.12-5.5-6.9v-4.6a1.642,1.642,0,0,1,3.284,0v4.6c0,2.134,1.149,3.612,2.217,3.612s2.217-1.478,2.217-3.612v-4.6a1.642,1.642,0,0,1,3.284,0v4.6C70,128.707,67.538,131.744,64.5,131.744Z" transform="translate(-59 -118.65)"/>
      </g>
      <g id="Group_438-2" data-name="Group 438" transform="translate(36.034 97.366)">
        <path id="Path_352" data-name="Path 352" class="cls-2" d="M44.638,136.169c-2.463-1.642,1.97-3.284,1.97-10.344v-5.583a1.642,1.642,0,0,1,3.284,0v5.583a18.511,18.511,0,0,1-2.955,9.934A1.7,1.7,0,0,1,44.638,136.169Z" transform="translate(-43.893 -118.6)"/>
      </g>
      <g id="Group_439" data-name="Group 439" transform="translate(65.899 97.489)">
        <path id="Path_353" data-name="Path 353" class="cls-2" d="M83.25,135.785c-3.448-5.172-2.955-9.441-2.955-15.434a1.642,1.642,0,0,1,3.284,0c0,5.583-.493,9.277,2.463,13.628a1.683,1.683,0,0,1-.41,2.3A1.875,1.875,0,0,1,83.25,135.785Z" transform="translate(-80.27 -118.75)"/>
      </g>
      <g id="Group_440" data-name="Group 440" transform="translate(0 25.368)">
        <path id="Path_354" data-name="Path 354" class="cls-2" d="M93.015,106.264H3.53A3.419,3.419,0,0,1,0,102.9V34.266A3.419,3.419,0,0,1,3.53,30.9H7.8a1.642,1.642,0,0,1,0,3.284,41.062,41.062,0,0,0-4.515.082v68.55a.36.36,0,0,0,.246.082H93.015a1.647,1.647,0,0,1,1.642,1.642A1.666,1.666,0,0,1,93.015,106.264Z" transform="translate(0 -30.9)"/>
      </g>
      <g id="Group_441" data-name="Group 441" transform="translate(98.474 25.368)">
        <path id="Path_355" data-name="Path 355" class="cls-2" d="M126.23,90.912V34.266a44.113,44.113,0,0,0-4.679-.082,1.642,1.642,0,0,1,0-3.284h4.433a3.419,3.419,0,0,1,3.53,3.366V90.912A1.642,1.642,0,1,1,126.23,90.912Z" transform="translate(-119.95 -30.9)"/>
      </g>
      <g id="Group_442" data-name="Group 442" transform="translate(6.609 17.076)">
        <path id="Path_356" data-name="Path 356" class="cls-2" d="M101.27,24H9.651a1.6,1.6,0,0,1,0-3.2h91.7a1.647,1.647,0,0,1,1.642,1.642A1.771,1.771,0,0,1,101.27,24Z" transform="translate(-8.05 -20.8)"/>
      </g>
      <g id="Group_443" data-name="Group 443" transform="translate(98.269 14.654)">
        <path id="Path_357" data-name="Path 357" class="cls-2" d="M119.7,82.172V19.451a1.6,1.6,0,1,1,3.2,0V82.172A1.6,1.6,0,1,1,119.7,82.172Z" transform="translate(-119.7 -17.85)"/>
      </g>
      <g id="Group_444" data-name="Group 444" transform="translate(6.568 15.229)">
        <path id="Path_358" data-name="Path 358" class="cls-2" d="M85.417,94.2H9.642A1.647,1.647,0,0,1,8,92.56V20.151a1.6,1.6,0,1,1,3.2,0V91H85.417a1.647,1.647,0,0,1,1.642,1.642A1.578,1.578,0,0,1,85.417,94.2Z" transform="translate(-8 -18.55)"/>
      </g>
      <g id="Group_445" data-name="Group 445" transform="translate(53.239 36.861)">
        <path id="Path_359" data-name="Path 359" class="cls-2" d="M92.557,48.184H66.451a1.642,1.642,0,0,1,0-3.284H92.557a1.642,1.642,0,1,1,0,3.284Z" transform="translate(-64.85 -44.9)"/>
      </g>
      <g id="Group_446" data-name="Group 446" transform="translate(53.239 45.071)">
        <path id="Path_360" data-name="Path 360" class="cls-2" d="M101.26,58.184H66.451a1.642,1.642,0,0,1,0-3.284H101.26a1.642,1.642,0,1,1,0,3.284Z" transform="translate(-64.85 -54.9)"/>
      </g>
      <g id="Group_447" data-name="Group 447" transform="translate(53.239 28.652)">
        <path id="Path_361" data-name="Path 361" class="cls-2" d="M101.177,38.184H66.451a1.642,1.642,0,0,1,0-3.284h34.727a1.642,1.642,0,0,1,0,3.284Z" transform="translate(-64.85 -34.9)"/>
      </g>
      <g id="Group_448" data-name="Group 448" transform="translate(16.624 65.841)">
        <path id="Path_362" data-name="Path 362" class="cls-2" d="M51.077,83.484H21.851a1.642,1.642,0,0,1,0-3.284H51.077a1.647,1.647,0,0,1,1.642,1.642A1.7,1.7,0,0,1,51.077,83.484Z" transform="translate(-20.25 -80.2)"/>
      </g>
      <g id="Group_449" data-name="Group 449" transform="translate(16.624 73.804)">
        <path id="Path_363" data-name="Path 363" class="cls-2" d="M51.077,93.184H21.851a1.642,1.642,0,0,1,0-3.284H51.077a1.647,1.647,0,0,1,1.642,1.642A1.7,1.7,0,0,1,51.077,93.184Z" transform="translate(-20.25 -89.9)"/>
      </g>
      <g id="Group_450" data-name="Group 450" transform="translate(45.276)">
        <path id="Path_364" data-name="Path 364" class="cls-2" d="M115.45,12.971a9.705,9.705,0,0,0-9.687-9.687H56.751a1.642,1.642,0,0,1,0-3.284h49.093a13,13,0,0,1,12.971,12.971C118.733,15.106,115.45,15.106,115.45,12.971Z" transform="translate(-55.15)"/>
      </g>
      <g id="Group_451" data-name="Group 451" transform="translate(6.568 7.389)">
        <path id="Path_365" data-name="Path 365" class="cls-2" d="M101.261,22.135H9.642A1.647,1.647,0,0,1,8,20.493V14.583A5.519,5.519,0,0,1,13.5,9H97.32a5.588,5.588,0,0,1,5.583,5.583v5.911A1.647,1.647,0,0,1,101.261,22.135ZM11.284,18.852H99.7V14.583a2.3,2.3,0,0,0-2.3-2.3H13.5a2.3,2.3,0,0,0-2.3,2.3v4.269Z" transform="translate(-8 -9)"/>
      </g>
      <g id="Group_452" data-name="Group 452" transform="translate(100.732 118.711)">
        <path id="Path_366" data-name="Path 366" class="cls-2" d="M124.342,147.884a1.642,1.642,0,0,1,0-3.284A1.647,1.647,0,0,1,124.342,147.884Z" transform="translate(-122.7 -144.6)"/>
      </g>
      <g id="Group_453" data-name="Group 453" transform="translate(38.544 0.164)">
        <path id="Path_367" data-name="Path 367" class="cls-2" d="M48.551,3.484a1.642,1.642,0,0,1,0-3.284A1.642,1.642,0,0,1,48.551,3.484Z" transform="translate(-46.95 -0.2)"/>
      </g>
      <g id="Group_454" data-name="Group 454" transform="translate(85.175 92.522)">
        <path id="Path_368" data-name="Path 368" class="cls-2" d="M105.351,115.984a1.642,1.642,0,0,1,0-3.284A1.642,1.642,0,0,1,105.351,115.984Z" transform="translate(-103.75 -112.7)"/>
      </g>
      <g id="Group_455" data-name="Group 455" transform="translate(79.017 92.522)">
        <path id="Path_369" data-name="Path 369" class="cls-2" d="M97.851,115.984a1.642,1.642,0,0,1,0-3.284A1.642,1.642,0,0,1,97.851,115.984Z" transform="translate(-96.25 -112.7)"/>
      </g>
      <g id="Group_456" data-name="Group 456" transform="translate(4.844 118.711)">
        <path id="Path_370" data-name="Path 370" class="cls-2" d="M96.78,147.884H7.542a1.642,1.642,0,0,1,0-3.284H96.78a1.642,1.642,0,1,1,0,3.284Z" transform="translate(-5.9 -144.6)"/>
      </g>
      <g id="Group_462" data-name="Group 462" transform="translate(62.212 54.484)">
        <g id="Group_457" data-name="Group 457" transform="translate(7.68 8.041)">
          <rect id="Rectangle_239" data-name="Rectangle 239" class="cls-3" width="9.441" height="50.982" transform="translate(0 6.676) rotate(-45)"/>
        </g>
        <g id="Group_458" data-name="Group 458" transform="translate(6.257 6.267)">
          <path id="Path_371" data-name="Path 371" class="cls-2" d="M119.933,119.481l-36.04-36.04a1.587,1.587,0,0,1,0-2.3l6.65-6.65a1.587,1.587,0,0,1,2.3,0l36.04,36.04a1.587,1.587,0,0,1,0,2.3l-6.65,6.65A1.587,1.587,0,0,1,119.933,119.481ZM87.341,82.292l33.741,33.741,4.351-4.351L91.692,77.941Z" transform="translate(-83.4 -74)"/>
        </g>
        <g id="Group_459" data-name="Group 459" transform="translate(42.215 42.225)">
          <path id="Path_372" data-name="Path 372" class="cls-2" d="M132.29,131.838l-4.6-4.6a1.587,1.587,0,0,1,0-2.3l6.65-6.65a1.587,1.587,0,0,1,2.3,0l4.6,4.6a1.587,1.587,0,0,1,0,2.3l-6.65,6.65A1.587,1.587,0,0,1,132.29,131.838Zm-1.067-5.665,2.217,2.217,4.351-4.351-2.217-2.217Z" transform="translate(-127.2 -117.8)"/>
        </g>
        <g id="Group_460" data-name="Group 460" transform="translate(2.21 2.138)">
          <path id="Path_373" data-name="Path 373" class="cls-2" d="M83.831,82.951c-1.231-.246-.9-.246-5.254-11.74a1.668,1.668,0,0,1,2.134-2.134c11.576,4.351,11.493,4.1,11.74,5.254s.082.985-7.142,8.21A1.468,1.468,0,0,1,83.831,82.951Zm-.9-9.523,1.888,4.926,3.12-3.12Z" transform="translate(-78.471 -68.971)"/>
        </g>
        <g id="Group_461" data-name="Group 461">
          <path id="Path_374" data-name="Path 374" class="cls-2" d="M79.408,72.3l-3.12-3.12a1.625,1.625,0,1,1,2.3-2.3l3.12,3.12a1.625,1.625,0,0,1-2.3,2.3Z" transform="translate(-75.779 -66.366)"/>
        </g>
      </g>
      <g id="Group_463" data-name="Group 463" transform="translate(16.337 28.898)">
        <path id="Path_375" data-name="Path 375" class="cls-1" d="M50.768,65.329H21.542A1.647,1.647,0,0,1,19.9,63.687V36.842A1.647,1.647,0,0,1,21.542,35.2H50.85a1.647,1.647,0,0,1,1.642,1.642V63.687A1.777,1.777,0,0,1,50.768,65.329ZM23.184,62.045H49.208V38.484H23.184Z" transform="translate(-19.9 -35.2)"/>
      </g>
      <g id="Group_464" data-name="Group 464" transform="translate(53.239 53.773)">
        <path id="Path_376" data-name="Path 376" class="cls-2" d="M70.391,68.784H66.451a1.642,1.642,0,0,1,0-3.284h3.941a1.642,1.642,0,0,1,0,3.284Z" transform="translate(-64.85 -65.5)"/>
      </g>
      <g id="Group_465" data-name="Group 465" transform="translate(17.897 37.928)">
        <path id="Path_377" data-name="Path 377" class="cls-1" d="M50.287,53.507,44.048,46.2l-7.06,10.18-5.911-4.762L21.8,62.209v3.448H50.123Z" transform="translate(-21.8 -46.2)"/>
      </g>
    </g>
  </g>
</svg>
