<svg xmlns="http://www.w3.org/2000/svg" xmlns:xlink="http://www.w3.org/1999/xlink" viewBox="0 0 25.857 23.755">
  <defs>
    <style>
      .cls-1 {
        fill: none;
      }

      .cls-2 {
        clip-path: url(#clip-path);
      }

      .cls-3 {
        fill: #253356;
      }

      .cls-4 {
        fill: #fff;
      }
    </style>
    <clipPath id="clip-path">
      <path id="Path_328" data-name="Path 328" class="cls-1" d="M0-76.94H25.857v23.755H0Z" transform="translate(0 76.94)"/>
    </clipPath>
  </defs>
  <g id="Group_409" data-name="Group 409" transform="translate(0 76.94)">
    <g id="Group_408" data-name="Group 408" class="cls-2" transform="translate(0 -76.94)">
      <g id="Group_402" data-name="Group 402" transform="translate(0 0)">
        <path id="Path_322" data-name="Path 322" class="cls-3" d="M-56.9-34.454a1.745,1.745,0,0,1,.442,1.16v1.179a1.745,1.745,0,0,1-.492,1.214,1.744,1.744,0,0,1,.492,1.214v1.179a1.755,1.755,0,0,1-1.753,1.753h-5.469c-.044,0-.087,0-.131-.006a.579.579,0,0,1-.066.006h-6.445a2.9,2.9,0,0,1-2.21-1.02.612.612,0,0,1-.212.04h-3.821V-26.7a.618.618,0,0,1-.618.618H-81.7a.618.618,0,0,1-.618-.618.618.618,0,0,1,.618-.618h3.9v-12.1h-3.9a.618.618,0,0,1-.618-.618.618.618,0,0,1,.618-.618h4.515a.617.617,0,0,1,.618.618v.9a.6.6,0,0,1,.116-.012h2.372a5.2,5.2,0,0,1,2.582-3.573,3.838,3.838,0,0,0,1.863-2.241,15,15,0,0,0,.571-4.254.618.618,0,0,1,.618-.618h.7a3.152,3.152,0,0,1,3.169,3.128v4.792a2.068,2.068,0,0,1,.85-.183h5.469A1.756,1.756,0,0,1-56.5-40.352v1.179a1.746,1.746,0,0,1-.491,1.214,1.746,1.746,0,0,1,.491,1.214v1.179a1.744,1.744,0,0,1-.4,1.112" transform="translate(82.314 49.843)"/>
      </g>
      <g id="Group_403" data-name="Group 403" transform="translate(17.785 16.031)">
        <path id="Path_323" data-name="Path 323" class="cls-4" d="M-14.048,0h-5.425a.851.851,0,0,0-.85.85v.517a.851.851,0,0,0,.85.85H-14a.519.519,0,0,0,.518-.518V.518A.519.519,0,0,0-14,0Z" transform="translate(20.323)"/>
      </g>
      <g id="Group_404" data-name="Group 404" transform="translate(17.741 12.58)">
        <path id="Path_324" data-name="Path 324" class="cls-4" d="M-2-4.962H3.425a.519.519,0,0,0,.518-.518V-6.66a.519.519,0,0,0-.518-.518H-2.044a.851.851,0,0,0-.85.85v.517a.85.85,0,0,0,.85.85Z" transform="translate(2.894 7.178)"/>
      </g>
      <g id="Group_405" data-name="Group 405" transform="translate(17.741 8.972)">
        <path id="Path_325" data-name="Path 325" class="cls-4" d="M0-1.9v.517a.851.851,0,0,0,.85.85H6.319a.519.519,0,0,0,.518-.518V-2.234a.519.519,0,0,0-.518-.518H.85A.85.85,0,0,0,0-1.9" transform="translate(0 2.752)"/>
      </g>
      <g id="Group_406" data-name="Group 406" transform="translate(5.75 1.235)">
        <path id="Path_326" data-name="Path 326" class="cls-4" d="M-13.978-46.164h4.74a2.068,2.068,0,0,1-.183-.85v-.517a2.077,2.077,0,0,1,.691-1.545,2.077,2.077,0,0,1-.691-1.546v-.516a2.076,2.076,0,0,1,.585-1.445q-.066-.065-.126-.136a6.05,6.05,0,0,1-3.687,1.251h-.011a.569.569,0,0,1-.617-.546.592.592,0,0,1,.606-.6c.739-.015,2.715-.3,3.207-1.458v-.519a2.077,2.077,0,0,1,.691-1.545,2.078,2.078,0,0,1-.691-1.546V-58.2a2.069,2.069,0,0,1,.293-1.061.616.616,0,0,1-.293-.524V-64.89A1.916,1.916,0,0,0-11.4-66.783h-.093A15.827,15.827,0,0,1-12.1-62.8a5.066,5.066,0,0,1-2.447,2.97,4.141,4.141,0,0,0-2.09,3.908.617.617,0,0,1-.618.618.617.617,0,0,1-.618-.618c0-.061,0-.118.006-.179H-20.1a.6.6,0,0,1-.116-.012v8.966h3.43a2.811,2.811,0,0,1-.075-.637v-.414a.617.617,0,0,1,.618-.618.618.618,0,0,1,.618.618v.414a1.637,1.637,0,0,0,1.653,1.617" transform="translate(20.221 66.783)"/>
      </g>
      <g id="Group_407" data-name="Group 407" transform="translate(17.785 19.638)">
        <path id="Path_327" data-name="Path 327" class="cls-4" d="M-15.307-1.161a.519.519,0,0,0-.518-.519h-5.469a.851.851,0,0,0-.85.85v.517a.851.851,0,0,0,.85.85h5.469a.519.519,0,0,0,.518-.518Z" transform="translate(22.144 1.68)"/>
      </g>
    </g>
  </g>
</svg>
