<?xml version="1.0" encoding="UTF-8"?> <svg xmlns="http://www.w3.org/2000/svg" width="34.959" height="49.523" viewBox="0 0 34.959 49.523"><defs><style>.a{fill:#f42c37;stroke:#fff;stroke-linejoin:round;stroke-width:0.3px;}.a,.b{stroke-linecap:round;}.b,.d{fill:none;}.b{stroke:#f42c37;stroke-width:2.4px;stroke-dasharray:27.5 30;}.c{stroke:none;}</style></defs><g transform="translate(206.192 157.468)"><path class="a" d="M273.267,180.6c-1.96,0-14.327-14.032-16.274-19.389a17.307,17.307,0,1,1,32.563-.053C287.629,166.538,275.238,180.6,273.267,180.6Zm1.347-4.308q2.358-2.364,4.564-4.872c4.015-4.556,6.971-8.64,7.876-11.161a14.644,14.644,0,1,0-27.557.045c.913,2.511,3.866,6.584,7.873,11.129q2.2,2.5,4.553,4.864c.524.519.985.958,1.345,1.289.362-.33.825-.772,1.347-1.294Zm-1.347-14.33a6.656,6.656,0,1,1,6.656-6.656A6.656,6.656,0,0,1,273.267,161.964Zm0-2.663a3.994,3.994,0,1,0-3.994-3.994A3.994,3.994,0,0,0,273.267,159.3Z" transform="translate(-461.979 -295.33)"></path><g class="b" transform="matrix(-1, -0.017, 0.017, -1, -171.86, -107.944)"><ellipse class="c" cx="17" cy="9.5" rx="17" ry="9.5"></ellipse><ellipse class="d" cx="17" cy="9.5" rx="15.8" ry="8.3"></ellipse></g></g></svg> 