<svg xmlns="http://www.w3.org/2000/svg" width="78" height="78" viewBox="0 0 78 78">
  <metadata><?xpacket begin="﻿" id="W5M0MpCehiHzreSzNTczkc9d"?>
<x:xmpmeta xmlns:x="adobe:ns:meta/" x:xmptk="Adobe XMP Core 5.6-c142 79.160924, 2017/07/13-01:06:39        ">
   <rdf:RDF xmlns:rdf="http://www.w3.org/1999/02/22-rdf-syntax-ns#">
      <rdf:Description rdf:about=""/>
   </rdf:RDF>
</x:xmpmeta>
                                                                                                    
                                                                                                    
                                                                                                    
                                                                                                    
                                                                                                    
                                                                                                    
                                                                                                    
                                                                                                    
                                                                                                    
                                                                                                    
                                                                                                    
                                                                                                    
                                                                                                    
                                                                                                    
                                                                                                    
                                                                                                    
                                                                                                    
                                                                                                    
                                                                                                    
                                                                                                    
                           
<?xpacket end="w"?></metadata>
<defs>
    <style>
      .cls-1 {
        fill: #cdcdcd;
        fill-rule: evenodd;
      }
    </style>
  </defs>
  <path id="testimonial-6" class="cls-1" d="M-2,79.993v-82H80v82H-2Zm80-80H0v78H78v-78ZM6,14H8v21H6v-21H6v0Zm0,0v-2h7v2H8v0H6ZM6,49H8v21H6v-21H6v0Zm0,0v-2h7v2H8v0H6ZM36,72H6v-2H36v2Zm-25-15H24v2H11v-2Zm0,10v-1h9v1H11Zm0-5H30v1H11v-1Zm25-13H34v0H28V47.5h0v-0.5h8v2h0v0Zm0,21H34V49h2v21ZM20.5,55A7.5,7.5,0,1,1,28,47.5h0A7.5,7.5,0,0,1,20.5,55Zm0-13a5.489,5.489,0,0,0-3.784,9.476,9.321,9.321,0,0,1,1.224-.548q0.281-.093.68-0.235a1.965,1.965,0,0,0,.633-0.293,1.184,1.184,0,0,0,.094-0.621V49.636a0.888,0.888,0,0,0-.211-0.551,2.221,2.221,0,0,1-.328-0.95,1.057,1.057,0,0,0-.141-0.375A1.879,1.879,0,0,1,18.48,47.2a0.635,0.635,0,0,1-.012-0.4,1.172,1.172,0,0,0,.059-0.234q-0.047-.375-0.094-0.774A1.636,1.636,0,0,1,18.9,44.63a1.955,1.955,0,0,1,1.594-.621,1.955,1.955,0,0,1,1.594.621,1.639,1.639,0,0,1,.469,1.161q-0.047.4-.094,0.774a1.147,1.147,0,0,0,.059.234,0.638,0.638,0,0,1-.012.4,1.9,1.9,0,0,1-.188.563,1.046,1.046,0,0,0-.141.375,2.225,2.225,0,0,1-.328.95,0.888,0.888,0,0,0-.211.551,1.209,1.209,0,0,0,.141.8,11.118,11.118,0,0,0,1.149.446,0.846,0.846,0,0,0,.117.047,9.276,9.276,0,0,1,1.229.551A5.489,5.489,0,0,0,20.5,42ZM42,14h2v21H42v-21h0v0Zm0,0v-2h7v2H44v0H42Zm0,35h2v21H42v-21h0v0Zm0,0v-2h7v2H44v0H42ZM72,72H42v-2H72v2Zm-25-15H60v2H47v-2Zm0,10v-1h9v1H47Zm0-5H66v1H47v-1Zm25-13H70v0H64V47.5h0v-0.5h8v2h0v0Zm0,21H70V49h2v21ZM56.5,55A7.5,7.5,0,1,1,64,47.5h0A7.5,7.5,0,0,1,56.5,55Zm0-13a5.489,5.489,0,0,0-3.784,9.476,9.321,9.321,0,0,1,1.224-.548q0.281-.093.68-0.235a1.965,1.965,0,0,0,.633-0.293,1.184,1.184,0,0,0,.094-0.621V49.636a0.888,0.888,0,0,0-.211-0.551,2.221,2.221,0,0,1-.328-0.95,1.057,1.057,0,0,0-.141-0.375A1.879,1.879,0,0,1,54.48,47.2a0.635,0.635,0,0,1-.012-0.4,1.172,1.172,0,0,0,.059-0.234q-0.047-.375-0.094-0.774A1.636,1.636,0,0,1,54.9,44.63a2.356,2.356,0,0,1,3.188,0,1.639,1.639,0,0,1,.469,1.161q-0.047.4-.094,0.774a1.147,1.147,0,0,0,.059.234,0.638,0.638,0,0,1-.012.4,1.9,1.9,0,0,1-.188.563,1.046,1.046,0,0,0-.141.375,2.225,2.225,0,0,1-.328.95,0.888,0.888,0,0,0-.211.551,1.209,1.209,0,0,0,.141.8,11.118,11.118,0,0,0,1.149.446,0.846,0.846,0,0,0,.117.047,9.276,9.276,0,0,1,1.229.551A5.489,5.489,0,0,0,56.5,42Zm3.5-18H47v-2H60v2ZM72,37H42v-2H72v2Zm-25-5v-1h9v1H47Zm0-5H66v1H47v-1Zm25-13H70v0H64V12.5h0v-0.5h8v2h0v0Zm0,21H70V14h2v21ZM56.5,20A7.5,7.5,0,1,1,64,12.5h0A7.5,7.5,0,0,1,56.5,20Zm0-13a5.489,5.489,0,0,0-3.784,9.476,9.321,9.321,0,0,1,1.224-.548q0.281-.093.68-0.235a1.965,1.965,0,0,0,.633-0.293,1.184,1.184,0,0,0,.094-0.621V14.636a0.888,0.888,0,0,0-.211-0.551,2.221,2.221,0,0,1-.328-0.949,1.057,1.057,0,0,0-.141-0.375A1.879,1.879,0,0,1,54.48,12.2a0.635,0.635,0,0,1-.012-0.4,1.172,1.172,0,0,0,.059-0.234q-0.047-.375-0.094-0.774A1.636,1.636,0,0,1,54.9,9.63a2.356,2.356,0,0,1,3.188,0,1.639,1.639,0,0,1,.469,1.161q-0.047.4-.094,0.774a1.147,1.147,0,0,0,.059.234,0.638,0.638,0,0,1-.012.4,1.9,1.9,0,0,1-.188.563,1.046,1.046,0,0,0-.141.375,2.225,2.225,0,0,1-.328.949,0.888,0.888,0,0,0-.211.551,1.209,1.209,0,0,0,.141.8,11.118,11.118,0,0,0,1.149.446,0.846,0.846,0,0,0,.117.047,9.276,9.276,0,0,1,1.229.551A5.489,5.489,0,0,0,56.5,7Zm-32.5,17H11v-2H24v2ZM36,37H6v-2H36v2Zm-25-5v-1h9v1H11Zm0-5H30v1H11v-1Zm25-13H34v0H28V12.5h0v-0.5h8v2h0v0Zm0,21H34V14h2v21ZM20.5,20A7.5,7.5,0,1,1,28,12.5h0A7.5,7.5,0,0,1,20.5,20Zm0-13a5.489,5.489,0,0,0-3.784,9.476,9.321,9.321,0,0,1,1.224-.548q0.281-.093.68-0.235a1.965,1.965,0,0,0,.633-0.293,1.184,1.184,0,0,0,.094-0.621V14.636a0.888,0.888,0,0,0-.211-0.551,2.221,2.221,0,0,1-.328-0.949,1.057,1.057,0,0,0-.141-0.375A1.879,1.879,0,0,1,18.48,12.2a0.635,0.635,0,0,1-.012-0.4,1.172,1.172,0,0,0,.059-0.234q-0.047-.375-0.094-0.774A1.636,1.636,0,0,1,18.9,9.63,1.954,1.954,0,0,1,20.5,9.009a1.955,1.955,0,0,1,1.594.621,1.639,1.639,0,0,1,.469,1.161q-0.047.4-.094,0.774a1.147,1.147,0,0,0,.059.234,0.638,0.638,0,0,1-.012.4,1.9,1.9,0,0,1-.188.563,1.046,1.046,0,0,0-.141.375,2.225,2.225,0,0,1-.328.949,0.888,0.888,0,0,0-.211.551,1.209,1.209,0,0,0,.141.8,11.118,11.118,0,0,0,1.149.446,0.846,0.846,0,0,0,.117.047,9.276,9.276,0,0,1,1.229.551A5.489,5.489,0,0,0,20.5,7Z"/>
</svg>
