<svg xmlns="http://www.w3.org/2000/svg" width="78" height="78" viewBox="0 0 78 78">
  <metadata><?xpacket begin="﻿" id="W5M0MpCehiHzreSzNTczkc9d"?>
<x:xmpmeta xmlns:x="adobe:ns:meta/" x:xmptk="Adobe XMP Core 5.6-c142 79.160924, 2017/07/13-01:06:39        ">
   <rdf:RDF xmlns:rdf="http://www.w3.org/1999/02/22-rdf-syntax-ns#">
      <rdf:Description rdf:about=""/>
   </rdf:RDF>
</x:xmpmeta>
                                                                                                    
                                                                                                    
                                                                                                    
                                                                                                    
                                                                                                    
                                                                                                    
                                                                                                    
                                                                                                    
                                                                                                    
                                                                                                    
                                                                                                    
                                                                                                    
                                                                                                    
                                                                                                    
                                                                                                    
                                                                                                    
                                                                                                    
                                                                                                    
                                                                                                    
                                                                                                    
                           
<?xpacket end="w"?></metadata>
<defs>
    <style>
      .cls-1 {
        fill: #cdcdcd;
        fill-rule: evenodd;
      }
    </style>
  </defs>
  <path id="testimonial-1" class="cls-1" d="M-2,79.993v-82H80v82H-2Zm80-80H0v78H78v-78Zm-72,7H25V9h0v13H23V9H8v13H6V9H6v-2Zm2,15H9.994a8.573,8.573,0,0,1,.057-1.125q0.114-.573,2.321-1.4,0.344-.114.831-0.287a2.4,2.4,0,0,0,.774-0.358,1.446,1.446,0,0,0,.115-0.759V17.888a1.085,1.085,0,0,0-.258-0.673,2.713,2.713,0,0,1-.4-1.16A1.292,1.292,0,0,0,13.26,15.6a2.3,2.3,0,0,1-.229-0.688,0.776,0.776,0,0,1-.014-0.487,1.438,1.438,0,0,0,.072-0.287q-0.058-.458-0.115-0.946a2,2,0,0,1,.573-1.418,2.389,2.389,0,0,1,1.948-.759,2.39,2.39,0,0,1,1.949.759,2,2,0,0,1,.573,1.418q-0.058.487-.115,0.946a1.4,1.4,0,0,0,.072.287,0.779,0.779,0,0,1-.014.487,2.324,2.324,0,0,1-.229.688,1.275,1.275,0,0,0-.172.459,2.72,2.72,0,0,1-.4,1.16,1.085,1.085,0,0,0-.258.673,1.478,1.478,0,0,0,.172.974,13.618,13.618,0,0,0,1.4.544,1.052,1.052,0,0,0,.143.057q2.206,0.831,2.321,1.4L21,21.993h4v2H6v-2H8ZM6,41H25v2h0v13h0v2H6v-2H6v-13H6V41Zm2,15H9.994a8.571,8.571,0,0,1,.057-1.125q0.114-.573,2.321-1.4,0.344-.114.831-0.287a2.4,2.4,0,0,0,.774-0.358,1.446,1.446,0,0,0,.115-0.759V51.888a1.085,1.085,0,0,0-.258-0.673,2.713,2.713,0,0,1-.4-1.16A1.292,1.292,0,0,0,13.26,49.6a2.3,2.3,0,0,1-.229-0.688,0.776,0.776,0,0,1-.014-0.487,1.438,1.438,0,0,0,.072-0.286q-0.058-.458-0.115-0.946a2,2,0,0,1,.573-1.418,2.389,2.389,0,0,1,1.948-.759,2.39,2.39,0,0,1,1.949.759,2,2,0,0,1,.573,1.418q-0.058.488-.115,0.946a1.4,1.4,0,0,0,.072.286,0.779,0.779,0,0,1-.014.487,2.324,2.324,0,0,1-.229.688,1.275,1.275,0,0,0-.172.459,2.72,2.72,0,0,1-.4,1.16,1.085,1.085,0,0,0-.258.673,1.478,1.478,0,0,0,.172.974,13.618,13.618,0,0,0,1.4.544,1.052,1.052,0,0,0,.143.057q2.206,0.831,2.321,1.4L21,55.993h2v-13H8v13Zm11,8H6v-2H19v2Zm6,4H6v-1H25v1Zm-10,4H6v-1h9v1Zm14-65H48V9h0v13h0v2H29v-2h0V9h0v-2Zm2,15h1.994a8.573,8.573,0,0,1,.057-1.125q0.114-.573,2.321-1.4,0.344-.114.831-0.287a2.4,2.4,0,0,0,.774-0.358,1.446,1.446,0,0,0,.115-0.759V17.888a1.085,1.085,0,0,0-.258-0.673,2.713,2.713,0,0,1-.4-1.16A1.292,1.292,0,0,0,36.26,15.6a2.3,2.3,0,0,1-.229-0.688,0.776,0.776,0,0,1-.014-0.487,1.438,1.438,0,0,0,.072-0.287q-0.058-.458-0.115-0.946a2,2,0,0,1,.573-1.418,2.389,2.389,0,0,1,1.949-.759,2.39,2.39,0,0,1,1.949.759,2,2,0,0,1,.573,1.418q-0.058.487-.115,0.946a1.4,1.4,0,0,0,.072.287,0.779,0.779,0,0,1-.014.487,2.324,2.324,0,0,1-.229.688,1.275,1.275,0,0,0-.172.459,2.72,2.72,0,0,1-.4,1.16,1.085,1.085,0,0,0-.258.673,1.478,1.478,0,0,0,.172.974,13.618,13.618,0,0,0,1.4.544,1.052,1.052,0,0,0,.143.057q2.206,0.831,2.321,1.4L44,21.993h2V9H31v13Zm-2,16v-1h9v1H29Zm0-10H42v2H29v-2Zm19,6H29v-1H48v1ZM29,41H48v2h0v13h0v2H29v-2h0v-13h0V41Zm2,15h1.994a8.571,8.571,0,0,1,.057-1.125q0.114-.573,2.321-1.4,0.344-.114.831-0.287a2.4,2.4,0,0,0,.774-0.358,1.446,1.446,0,0,0,.115-0.759V51.888a1.085,1.085,0,0,0-.258-0.673,2.713,2.713,0,0,1-.4-1.16A1.292,1.292,0,0,0,36.26,49.6a2.3,2.3,0,0,1-.229-0.688,0.776,0.776,0,0,1-.014-0.487,1.438,1.438,0,0,0,.072-0.286q-0.058-.458-0.115-0.946a2,2,0,0,1,.573-1.418,2.389,2.389,0,0,1,1.949-.759,2.39,2.39,0,0,1,1.949.759,2,2,0,0,1,.573,1.418q-0.058.488-.115,0.946a1.4,1.4,0,0,0,.072.286,0.779,0.779,0,0,1-.014.487,2.324,2.324,0,0,1-.229.688,1.275,1.275,0,0,0-.172.459,2.72,2.72,0,0,1-.4,1.16,1.085,1.085,0,0,0-.258.673,1.478,1.478,0,0,0,.172.974,13.618,13.618,0,0,0,1.4.544,1.052,1.052,0,0,0,.143.057q2.206,0.831,2.321,1.4L44,55.993h2v-13H31v13Zm11,8H29V62H42v2Zm6,4H29V67H48v1Zm-10,4H29v-1h9v1Zm14-65H71V9h0v13H69V9H54v13H52V9h0v-2Zm2,15h1.994a8.573,8.573,0,0,1,.057-1.125q0.114-.573,2.321-1.4,0.344-.114.831-0.287a2.4,2.4,0,0,0,.774-0.358,1.446,1.446,0,0,0,.115-0.759V17.888a1.085,1.085,0,0,0-.258-0.673,2.713,2.713,0,0,1-.4-1.16A1.292,1.292,0,0,0,59.26,15.6a2.3,2.3,0,0,1-.229-0.688,0.776,0.776,0,0,1-.014-0.487,1.438,1.438,0,0,0,.072-0.287q-0.058-.458-0.115-0.946a2,2,0,0,1,.573-1.418,2.88,2.88,0,0,1,3.9,0,2,2,0,0,1,.573,1.418q-0.058.487-.115,0.946a1.4,1.4,0,0,0,.072.287,0.779,0.779,0,0,1-.014.487,2.324,2.324,0,0,1-.229.688,1.275,1.275,0,0,0-.172.459,2.72,2.72,0,0,1-.4,1.16,1.085,1.085,0,0,0-.258.673,1.478,1.478,0,0,0,.172.974,13.618,13.618,0,0,0,1.4.544,1.052,1.052,0,0,0,.143.057q2.206,0.831,2.321,1.4L67,21.993h4v2H52v-2h2ZM52,41H71v2h0v13h0v2H52v-2h0v-13h0V41Zm2,15h1.994a8.571,8.571,0,0,1,.057-1.125q0.114-.573,2.321-1.4,0.344-.114.831-0.287a2.4,2.4,0,0,0,.774-0.358,1.446,1.446,0,0,0,.115-0.759V51.888a1.085,1.085,0,0,0-.258-0.673,2.713,2.713,0,0,1-.4-1.16A1.292,1.292,0,0,0,59.26,49.6a2.3,2.3,0,0,1-.229-0.688,0.776,0.776,0,0,1-.014-0.487,1.438,1.438,0,0,0,.072-0.286q-0.058-.458-0.115-0.946a2,2,0,0,1,.573-1.418,2.88,2.88,0,0,1,3.9,0,2,2,0,0,1,.573,1.418q-0.058.488-.115,0.946a1.4,1.4,0,0,0,.072.286,0.779,0.779,0,0,1-.014.487,2.324,2.324,0,0,1-.229.688,1.275,1.275,0,0,0-.172.459,2.72,2.72,0,0,1-.4,1.16,1.085,1.085,0,0,0-.258.673,1.478,1.478,0,0,0,.172.974,13.618,13.618,0,0,0,1.4.544,1.052,1.052,0,0,0,.143.057q2.206,0.831,2.321,1.4L67,55.993h2v-13H54v13Zm11,8H52V62H65v2Zm6,4H52V67H71v1Zm-10,4H52v-1h9v1Zm-9-34V37h9v1H52Zm0-10H65v2H52V28Zm0,5H71v1H52V33Zm-46,5v-1h9v1H6Zm0-10H19v2H6v-2Zm0,5H25v1H6v-1Z"/>
</svg>
