<svg xmlns="http://www.w3.org/2000/svg" width="78" height="78" viewBox="0 0 78 78">
  <metadata><?xpacket begin="﻿" id="W5M0MpCehiHzreSzNTczkc9d"?>
<x:xmpmeta xmlns:x="adobe:ns:meta/" x:xmptk="Adobe XMP Core 5.6-c142 79.160924, 2017/07/13-01:06:39        ">
   <rdf:RDF xmlns:rdf="http://www.w3.org/1999/02/22-rdf-syntax-ns#">
      <rdf:Description rdf:about=""/>
   </rdf:RDF>
</x:xmpmeta>
                                                                                                    
                                                                                                    
                                                                                                    
                                                                                                    
                                                                                                    
                                                                                                    
                                                                                                    
                                                                                                    
                                                                                                    
                                                                                                    
                                                                                                    
                                                                                                    
                                                                                                    
                                                                                                    
                                                                                                    
                                                                                                    
                                                                                                    
                                                                                                    
                                                                                                    
                                                                                                    
                           
<?xpacket end="w"?></metadata>
<defs>
    <style>
      .cls-1 {
        fill: #cdcdcd;
        fill-rule: evenodd;
      }
    </style>
  </defs>
  <path id="testimonial-5" class="cls-1" d="M-2,79.993v-82H80v82H-2Zm80-80H0v78H78v-78ZM14,7a8.991,8.991,0,0,1,5.982,15.712L20,23.015H19.631A9,9,0,1,1,14,7ZM9.532,21.347a8.773,8.773,0,0,1,1.84-.883q0.344-.114.831-0.287a2.4,2.4,0,0,0,.774-0.358,1.446,1.446,0,0,0,.115-0.759V18.888a1.085,1.085,0,0,0-.258-0.673,2.713,2.713,0,0,1-.4-1.16A1.292,1.292,0,0,0,12.26,16.6a2.3,2.3,0,0,1-.229-0.688,0.776,0.776,0,0,1-.014-0.487,1.438,1.438,0,0,0,.072-0.287q-0.058-.458-0.115-0.946a2,2,0,0,1,.573-1.418,2.389,2.389,0,0,1,1.948-.759,2.39,2.39,0,0,1,1.949.759,2,2,0,0,1,.573,1.418q-0.058.487-.115,0.946a1.4,1.4,0,0,0,.072.287,0.779,0.779,0,0,1-.014.487,2.324,2.324,0,0,1-.229.688,1.275,1.275,0,0,0-.172.459,2.72,2.72,0,0,1-.4,1.16,1.085,1.085,0,0,0-.258.673,1.478,1.478,0,0,0,.172.974,13.618,13.618,0,0,0,1.4.544,1.052,1.052,0,0,0,.143.057,12.754,12.754,0,0,1,1.257.547A7.016,7.016,0,1,0,9.532,21.347ZM14,29a8.991,8.991,0,0,1,5.982,15.712L20,45.015H19.631A9,9,0,1,1,14,29ZM9.532,43.347a8.773,8.773,0,0,1,1.84-.883q0.344-.114.831-0.287a2.4,2.4,0,0,0,.774-0.358,1.446,1.446,0,0,0,.115-0.759V40.888a1.085,1.085,0,0,0-.258-0.673,2.713,2.713,0,0,1-.4-1.16A1.292,1.292,0,0,0,12.26,38.6a2.3,2.3,0,0,1-.229-0.688,0.776,0.776,0,0,1-.014-0.487,1.438,1.438,0,0,0,.072-0.286q-0.058-.458-0.115-0.946a2,2,0,0,1,.573-1.418,2.389,2.389,0,0,1,1.948-.759,2.39,2.39,0,0,1,1.949.759,2,2,0,0,1,.573,1.418q-0.058.488-.115,0.946a1.4,1.4,0,0,0,.072.286,0.779,0.779,0,0,1-.014.487,2.324,2.324,0,0,1-.229.688,1.275,1.275,0,0,0-.172.459,2.72,2.72,0,0,1-.4,1.16,1.085,1.085,0,0,0-.258.673,1.478,1.478,0,0,0,.172.974,13.618,13.618,0,0,0,1.4.544,1.052,1.052,0,0,0,.143.057,12.754,12.754,0,0,1,1.257.547A7.016,7.016,0,1,0,9.532,43.347ZM14,52a8.991,8.991,0,0,1,5.982,15.712L20,68.015H19.631A9,9,0,1,1,14,52ZM9.532,66.347a8.773,8.773,0,0,1,1.84-.883q0.344-.114.831-0.287a2.4,2.4,0,0,0,.774-0.358,1.446,1.446,0,0,0,.115-0.759V63.888a1.085,1.085,0,0,0-.258-0.673,2.713,2.713,0,0,1-.4-1.16A1.292,1.292,0,0,0,12.26,61.6a2.3,2.3,0,0,1-.229-0.688,0.776,0.776,0,0,1-.014-0.487,1.438,1.438,0,0,0,.072-0.286q-0.058-.458-0.115-0.946a2,2,0,0,1,.573-1.418,2.389,2.389,0,0,1,1.948-.759,2.39,2.39,0,0,1,1.949.759,2,2,0,0,1,.573,1.418q-0.058.488-.115,0.946a1.4,1.4,0,0,0,.072.286,0.779,0.779,0,0,1-.014.487,2.324,2.324,0,0,1-.229.688,1.275,1.275,0,0,0-.172.459,2.72,2.72,0,0,1-.4,1.16,1.085,1.085,0,0,0-.258.673,1.478,1.478,0,0,0,.172.974,13.618,13.618,0,0,0,1.4.544,1.052,1.052,0,0,0,.143.057,12.754,12.754,0,0,1,1.257.547A7.016,7.016,0,1,0,9.532,66.347ZM37,12.994H27v-2H37v2Zm1,4H27v-1H38v1Zm-7,4H27v-1h4v1Zm6,14H27v-2H37v2Zm1,4H27v-1H38v1Zm-7,4H27v-1h4v1Zm6,15H27v-2H37v2Zm1,4H27v-1H38v1Zm-7,4H27v-1h4v1ZM49,7a8.991,8.991,0,0,1,5.982,15.712L55,23.015H54.631A9,9,0,1,1,49,7ZM44.532,21.347a8.775,8.775,0,0,1,1.84-.883q0.344-.114.831-0.287a2.4,2.4,0,0,0,.774-0.358,1.446,1.446,0,0,0,.115-0.759V18.888a1.085,1.085,0,0,0-.258-0.673,2.713,2.713,0,0,1-.4-1.16A1.292,1.292,0,0,0,47.26,16.6a2.3,2.3,0,0,1-.229-0.688,0.776,0.776,0,0,1-.014-0.487,1.438,1.438,0,0,0,.072-0.287q-0.058-.458-0.115-0.946a2,2,0,0,1,.573-1.418,2.88,2.88,0,0,1,3.9,0,2,2,0,0,1,.573,1.418q-0.058.487-.115,0.946a1.4,1.4,0,0,0,.072.287,0.779,0.779,0,0,1-.014.487,2.324,2.324,0,0,1-.229.688,1.275,1.275,0,0,0-.172.459,2.72,2.72,0,0,1-.4,1.16,1.085,1.085,0,0,0-.258.673,1.478,1.478,0,0,0,.172.974,13.618,13.618,0,0,0,1.4.544,1.052,1.052,0,0,0,.143.057,12.754,12.754,0,0,1,1.257.547A7.016,7.016,0,1,0,44.532,21.347ZM49,29a8.991,8.991,0,0,1,5.982,15.712L55,45.015H54.631A9,9,0,1,1,49,29ZM44.532,43.347a8.775,8.775,0,0,1,1.84-.883q0.344-.114.831-0.287a2.4,2.4,0,0,0,.774-0.358,1.446,1.446,0,0,0,.115-0.759V40.888a1.085,1.085,0,0,0-.258-0.673,2.713,2.713,0,0,1-.4-1.16A1.292,1.292,0,0,0,47.26,38.6a2.3,2.3,0,0,1-.229-0.688,0.776,0.776,0,0,1-.014-0.487,1.438,1.438,0,0,0,.072-0.286q-0.058-.458-0.115-0.946a2,2,0,0,1,.573-1.418,2.88,2.88,0,0,1,3.9,0,2,2,0,0,1,.573,1.418q-0.058.488-.115,0.946a1.4,1.4,0,0,0,.072.286,0.779,0.779,0,0,1-.014.487,2.324,2.324,0,0,1-.229.688,1.275,1.275,0,0,0-.172.459,2.72,2.72,0,0,1-.4,1.16,1.085,1.085,0,0,0-.258.673,1.478,1.478,0,0,0,.172.974,13.618,13.618,0,0,0,1.4.544,1.052,1.052,0,0,0,.143.057,12.754,12.754,0,0,1,1.257.547A7.016,7.016,0,1,0,44.532,43.347ZM49,52a8.991,8.991,0,0,1,5.982,15.712L55,68.015H54.631A9,9,0,1,1,49,52ZM44.532,66.347a8.775,8.775,0,0,1,1.84-.883q0.344-.114.831-0.287a2.4,2.4,0,0,0,.774-0.358,1.446,1.446,0,0,0,.115-0.759V63.888a1.085,1.085,0,0,0-.258-0.673,2.713,2.713,0,0,1-.4-1.16A1.292,1.292,0,0,0,47.26,61.6a2.3,2.3,0,0,1-.229-0.688,0.776,0.776,0,0,1-.014-0.487,1.438,1.438,0,0,0,.072-0.286q-0.058-.458-0.115-0.946a2,2,0,0,1,.573-1.418,2.88,2.88,0,0,1,3.9,0,2,2,0,0,1,.573,1.418q-0.058.488-.115,0.946a1.4,1.4,0,0,0,.072.286,0.779,0.779,0,0,1-.014.487,2.324,2.324,0,0,1-.229.688,1.275,1.275,0,0,0-.172.459,2.72,2.72,0,0,1-.4,1.16,1.085,1.085,0,0,0-.258.673,1.478,1.478,0,0,0,.172.974,13.618,13.618,0,0,0,1.4.544,1.052,1.052,0,0,0,.143.057,12.754,12.754,0,0,1,1.257.547A7.016,7.016,0,1,0,44.532,66.347ZM72,12.994H62v-2H72v2Zm1,4H62v-1H73v1Zm-7,4H62v-1h4v1Zm6,14H62v-2H72v2Zm1,4H62v-1H73v1Zm-7,4H62v-1h4v1Zm6,15H62v-2H72v2Zm1,4H62v-1H73v1Zm-7,4H62v-1h4v1Z"/>
</svg>
