<svg xmlns="http://www.w3.org/2000/svg" width="78" height="78" viewBox="0 0 78 78">
  <metadata><?xpacket begin="﻿" id="W5M0MpCehiHzreSzNTczkc9d"?>
<x:xmpmeta xmlns:x="adobe:ns:meta/" x:xmptk="Adobe XMP Core 5.6-c142 79.160924, 2017/07/13-01:06:39        ">
   <rdf:RDF xmlns:rdf="http://www.w3.org/1999/02/22-rdf-syntax-ns#">
      <rdf:Description rdf:about=""/>
   </rdf:RDF>
</x:xmpmeta>
                                                                                                    
                                                                                                    
                                                                                                    
                                                                                                    
                                                                                                    
                                                                                                    
                                                                                                    
                                                                                                    
                                                                                                    
                                                                                                    
                                                                                                    
                                                                                                    
                                                                                                    
                                                                                                    
                                                                                                    
                                                                                                    
                                                                                                    
                                                                                                    
                                                                                                    
                                                                                                    
                           
<?xpacket end="w"?></metadata>
<defs>
    <style>
      .cls-1 {
        fill: #cdcdcd;
        fill-rule: evenodd;
      }
    </style>
  </defs>
  <path id="testimonial-3" class="cls-1" d="M-2,79.993v-82H80v82H-2Zm80-80H0v78H78v-78ZM66,9h0v13H64V9H49v13h1.994a8.573,8.573,0,0,1,.057-1.125q0.114-.573,2.321-1.4,0.344-.114.831-0.287a2.4,2.4,0,0,0,.774-0.358,1.446,1.446,0,0,0,.115-0.759V17.888a1.085,1.085,0,0,0-.258-0.673,2.713,2.713,0,0,1-.4-1.16A1.292,1.292,0,0,0,54.26,15.6a2.3,2.3,0,0,1-.229-0.688,0.776,0.776,0,0,1-.014-0.487,1.438,1.438,0,0,0,.072-0.287q-0.058-.458-0.115-0.946a2,2,0,0,1,.573-1.418,2.88,2.88,0,0,1,3.9,0,2,2,0,0,1,.573,1.418q-0.058.487-.115,0.946a1.4,1.4,0,0,0,.072.287,0.779,0.779,0,0,1-.014.487,2.324,2.324,0,0,1-.229.688,1.275,1.275,0,0,0-.172.459,2.72,2.72,0,0,1-.4,1.16,1.085,1.085,0,0,0-.258.673,1.478,1.478,0,0,0,.172.974,13.618,13.618,0,0,0,1.4.544,1.052,1.052,0,0,0,.143.057q2.206,0.831,2.321,1.4L62,21.993h4v2H13v-2h3.995a8.573,8.573,0,0,1,.057-1.125q0.114-.573,2.321-1.4,0.344-.114.831-0.287a2.4,2.4,0,0,0,.774-0.358,1.446,1.446,0,0,0,.115-0.759V17.888a1.085,1.085,0,0,0-.258-0.673,2.713,2.713,0,0,1-.4-1.16A1.292,1.292,0,0,0,20.26,15.6a2.3,2.3,0,0,1-.229-0.688,0.776,0.776,0,0,1-.014-0.487,1.438,1.438,0,0,0,.072-0.287q-0.058-.458-0.115-0.946a2,2,0,0,1,.573-1.418,2.389,2.389,0,0,1,1.949-.759,2.39,2.39,0,0,1,1.949.759,2,2,0,0,1,.573,1.418q-0.058.487-.115,0.946a1.4,1.4,0,0,0,.072.287,0.779,0.779,0,0,1-.014.487,2.324,2.324,0,0,1-.229.688,1.275,1.275,0,0,0-.172.459,2.72,2.72,0,0,1-.4,1.16,1.085,1.085,0,0,0-.258.673,1.478,1.478,0,0,0,.172.974,13.618,13.618,0,0,0,1.4.544,1.052,1.052,0,0,0,.143.057q2.206,0.831,2.321,1.4L28,21.993h2V9H15v13H13V9h0v-2H66V9ZM47,9H32v13h1.994a8.573,8.573,0,0,1,.057-1.125q0.114-.573,2.321-1.4,0.344-.114.831-0.287a2.4,2.4,0,0,0,.774-0.358,1.446,1.446,0,0,0,.115-0.759V17.888a1.085,1.085,0,0,0-.258-0.673,2.713,2.713,0,0,1-.4-1.16A1.292,1.292,0,0,0,37.26,15.6a2.3,2.3,0,0,1-.229-0.688,0.776,0.776,0,0,1-.014-0.487,1.438,1.438,0,0,0,.072-0.287q-0.058-.458-0.115-0.946a2,2,0,0,1,.573-1.418,2.88,2.88,0,0,1,3.9,0,2,2,0,0,1,.573,1.418q-0.058.487-.115,0.946a1.4,1.4,0,0,0,.072.287,0.779,0.779,0,0,1-.014.487,2.324,2.324,0,0,1-.229.688,1.275,1.275,0,0,0-.172.459,2.72,2.72,0,0,1-.4,1.16,1.085,1.085,0,0,0-.258.673,1.478,1.478,0,0,0,.172.974,13.618,13.618,0,0,0,1.4.544,1.052,1.052,0,0,0,.143.057q2.206,0.831,2.321,1.4L45,21.993h2V9Zm-34,29v-1h6v1H13Zm0-10H23v2H13v-2Zm14,6H13v-1H27v1Zm5,4v-1h6v1H32Zm0-10H42v2H32v-2Zm14,6H32v-1H46v1Zm4,4v-1h6v1H50Zm0-10H60v2H50v-2Zm14,6H50v-1H64v1Zm2,9h0v13H64V43H49v13h1.994a8.573,8.573,0,0,1,.057-1.125q0.114-.573,2.321-1.4,0.344-.114.831-0.287a2.4,2.4,0,0,0,.774-0.358,1.446,1.446,0,0,0,.115-0.759V51.888a1.085,1.085,0,0,0-.258-0.673,2.713,2.713,0,0,1-.4-1.16A1.292,1.292,0,0,0,54.26,49.6a2.3,2.3,0,0,1-.229-0.688,0.776,0.776,0,0,1-.014-0.487,1.438,1.438,0,0,0,.072-0.286q-0.058-.458-0.115-0.946a2,2,0,0,1,.573-1.418,2.88,2.88,0,0,1,3.9,0,2,2,0,0,1,.573,1.418q-0.058.488-.115,0.946a1.4,1.4,0,0,0,.072.286,0.779,0.779,0,0,1-.014.487,2.324,2.324,0,0,1-.229.688,1.275,1.275,0,0,0-.172.459,2.72,2.72,0,0,1-.4,1.16,1.085,1.085,0,0,0-.258.673,1.478,1.478,0,0,0,.172.974,13.618,13.618,0,0,0,1.4.544,1.052,1.052,0,0,0,.143.057q2.206,0.831,2.321,1.4L62,55.993h4v2H13v-2h3.995a8.573,8.573,0,0,1,.057-1.125q0.114-.573,2.321-1.4,0.344-.114.831-0.287a2.4,2.4,0,0,0,.774-0.358,1.446,1.446,0,0,0,.115-0.759V51.888a1.085,1.085,0,0,0-.258-0.673,2.713,2.713,0,0,1-.4-1.16A1.292,1.292,0,0,0,20.26,49.6a2.3,2.3,0,0,1-.229-0.688,0.776,0.776,0,0,1-.014-0.487,1.438,1.438,0,0,0,.072-0.286q-0.058-.458-0.115-0.946a2,2,0,0,1,.573-1.418,2.389,2.389,0,0,1,1.949-.759,2.39,2.39,0,0,1,1.949.759,2,2,0,0,1,.573,1.418q-0.058.488-.115,0.946a1.4,1.4,0,0,0,.072.286,0.779,0.779,0,0,1-.014.487,2.324,2.324,0,0,1-.229.688,1.275,1.275,0,0,0-.172.459,2.72,2.72,0,0,1-.4,1.16,1.085,1.085,0,0,0-.258.673,1.478,1.478,0,0,0,.172.974,13.618,13.618,0,0,0,1.4.544,1.052,1.052,0,0,0,.143.057q2.206,0.831,2.321,1.4L28,55.993h2V43H15v13H13V43h0v-2H66v2ZM47,43H32v13h1.994a8.573,8.573,0,0,1,.057-1.125q0.114-.573,2.321-1.4,0.344-.114.831-0.287a2.4,2.4,0,0,0,.774-0.358,1.446,1.446,0,0,0,.115-0.759V51.888a1.085,1.085,0,0,0-.258-0.673,2.713,2.713,0,0,1-.4-1.16A1.292,1.292,0,0,0,37.26,49.6a2.3,2.3,0,0,1-.229-0.688,0.776,0.776,0,0,1-.014-0.487,1.438,1.438,0,0,0,.072-0.286q-0.058-.458-0.115-0.946a2,2,0,0,1,.573-1.418,2.88,2.88,0,0,1,3.9,0,2,2,0,0,1,.573,1.418q-0.058.488-.115,0.946a1.4,1.4,0,0,0,.072.286,0.779,0.779,0,0,1-.014.487,2.324,2.324,0,0,1-.229.688,1.275,1.275,0,0,0-.172.459,2.72,2.72,0,0,1-.4,1.16,1.085,1.085,0,0,0-.258.673,1.478,1.478,0,0,0,.172.974,13.618,13.618,0,0,0,1.4.544,1.052,1.052,0,0,0,.143.057q2.206,0.831,2.321,1.4L45,55.993h2V43Zm-24,21H13v-2H23v2Zm4,4H13v-1H27v1Zm-8,4H13v-1h6v1Zm23-8H32v-2H42v2Zm4,4H32v-1H46v1Zm-8,4H32v-1h6v1Zm22-8H50v-2H60v2Zm4,4H50v-1H64v1Zm-8,4H50v-1h6v1Z"/>
</svg>
