<svg xmlns="http://www.w3.org/2000/svg" width="78" height="78" viewBox="0 0 78 78">
  <metadata><?xpacket begin="﻿" id="W5M0MpCehiHzreSzNTczkc9d"?>
<x:xmpmeta xmlns:x="adobe:ns:meta/" x:xmptk="Adobe XMP Core 5.6-c142 79.160924, 2017/07/13-01:06:39        ">
   <rdf:RDF xmlns:rdf="http://www.w3.org/1999/02/22-rdf-syntax-ns#">
      <rdf:Description rdf:about=""/>
   </rdf:RDF>
</x:xmpmeta>
                                                                                                    
                                                                                                    
                                                                                                    
                                                                                                    
                                                                                                    
                                                                                                    
                                                                                                    
                                                                                                    
                                                                                                    
                                                                                                    
                                                                                                    
                                                                                                    
                                                                                                    
                                                                                                    
                                                                                                    
                                                                                                    
                                                                                                    
                                                                                                    
                                                                                                    
                                                                                                    
                           
<?xpacket end="w"?></metadata>
<defs>
    <style>
      .cls-1 {
        fill: #cdcdcd;
        fill-rule: evenodd;
      }
    </style>
  </defs>
  <path id="testimonial-2" class="cls-1" d="M31-545.5a7.5,7.5,0,0,1,7.5-7.5,7.5,7.5,0,0,1,7.5,7.5,7.5,7.5,0,0,1-7.5,7.5A7.5,7.5,0,0,1,31-545.5Zm2,0a5.5,5.5,0,0,1,5.5-5.5,5.5,5.5,0,0,1,5.5,5.5,5.5,5.5,0,0,1-5.5,5.5A5.5,5.5,0,0,1,33-545.5ZM-2,79.993v-82H80v82H-2Zm80-80H0v78H78v-78Zm-53,34H6v-1H25v1Zm0,34H6v-1H25v1Zm-5,4H11v-1h9v1Zm2-8H9v-2H22v2Zm-11-27h9v1H11v-1ZM15.5,59A9.5,9.5,0,1,1,25,49.5,9.5,9.5,0,0,1,15.5,59Zm0-16.889a7.359,7.359,0,0,0-4.688,13.056,11.106,11.106,0,0,1,1.56-.7q0.344-.114.831-0.287a2.4,2.4,0,0,0,.774-0.358,1.446,1.446,0,0,0,.115-0.759V52.888a1.085,1.085,0,0,0-.258-0.673,2.713,2.713,0,0,1-.4-1.16A1.292,1.292,0,0,0,13.26,50.6a2.3,2.3,0,0,1-.229-0.688,0.776,0.776,0,0,1-.014-0.487,1.438,1.438,0,0,0,.072-0.286q-0.058-.458-0.115-0.946a2,2,0,0,1,.573-1.418,2.389,2.389,0,0,1,1.948-.759,2.39,2.39,0,0,1,1.949.759,2,2,0,0,1,.573,1.418q-0.058.488-.115,0.946a1.4,1.4,0,0,0,.072.286,0.779,0.779,0,0,1-.014.487,2.324,2.324,0,0,1-.229.688,1.275,1.275,0,0,0-.172.459,2.72,2.72,0,0,1-.4,1.16,1.085,1.085,0,0,0-.258.673,1.478,1.478,0,0,0,.172.974,13.618,13.618,0,0,0,1.4.544,1.052,1.052,0,0,0,.143.057,11.094,11.094,0,0,1,1.566.706A7.359,7.359,0,0,0,15.5,42.111ZM48,33.994H29v-1H48v1Zm0,34H29V67H48v1Zm-5,4H34v-1h9v1Zm2-8H32V62H45v2Zm-11-27h9v1H34v-1ZM38.5,59A9.5,9.5,0,1,1,48,49.5,9.5,9.5,0,0,1,38.5,59Zm0-16.889a7.359,7.359,0,0,0-4.688,13.056,11.106,11.106,0,0,1,1.56-.7q0.344-.114.831-0.287a2.4,2.4,0,0,0,.774-0.358,1.446,1.446,0,0,0,.115-0.759V52.888a1.085,1.085,0,0,0-.258-0.673,2.713,2.713,0,0,1-.4-1.16A1.292,1.292,0,0,0,36.26,50.6a2.3,2.3,0,0,1-.229-0.688,0.776,0.776,0,0,1-.014-0.487,1.438,1.438,0,0,0,.072-0.286q-0.058-.458-0.115-0.946a2,2,0,0,1,.573-1.418,2.389,2.389,0,0,1,1.949-.759,2.39,2.39,0,0,1,1.949.759,2,2,0,0,1,.573,1.418q-0.058.488-.115,0.946a1.4,1.4,0,0,0,.072.286,0.779,0.779,0,0,1-.014.487,2.324,2.324,0,0,1-.229.688,1.275,1.275,0,0,0-.172.459,2.72,2.72,0,0,1-.4,1.16,1.085,1.085,0,0,0-.258.673,1.478,1.478,0,0,0,.172.974,13.618,13.618,0,0,0,1.4.544,1.052,1.052,0,0,0,.143.057,11.094,11.094,0,0,1,1.566.706A7.359,7.359,0,0,0,38.5,42.111ZM71,34H52V33H71v1Zm0,34H52V67H71v1Zm-5,4H57v-1h9v1Zm2-8H55V62H68v2ZM57,37h9v1H57V37Zm4.5,22A9.5,9.5,0,1,1,71,49.5,9.5,9.5,0,0,1,61.5,59Zm0-16.889a7.359,7.359,0,0,0-4.688,13.056,11.106,11.106,0,0,1,1.56-.7q0.344-.114.831-0.287a2.4,2.4,0,0,0,.774-0.358,1.446,1.446,0,0,0,.115-0.759V52.888a1.085,1.085,0,0,0-.258-0.673,2.713,2.713,0,0,1-.4-1.16A1.292,1.292,0,0,0,59.26,50.6a2.3,2.3,0,0,1-.229-0.688,0.776,0.776,0,0,1-.014-0.487,1.438,1.438,0,0,0,.072-0.286q-0.058-.458-0.115-0.946a2,2,0,0,1,.573-1.418,2.88,2.88,0,0,1,3.9,0,2,2,0,0,1,.573,1.418q-0.058.488-.115,0.946a1.4,1.4,0,0,0,.072.286,0.779,0.779,0,0,1-.014.487,2.324,2.324,0,0,1-.229.688,1.275,1.275,0,0,0-.172.459,2.72,2.72,0,0,1-.4,1.16,1.085,1.085,0,0,0-.258.673,1.478,1.478,0,0,0,.172.974,13.618,13.618,0,0,0,1.4.544,1.052,1.052,0,0,0,.143.057,11.094,11.094,0,0,1,1.566.706A7.359,7.359,0,0,0,61.5,42.111ZM68,29.994H55V28H68v2ZM61.5,25A9.5,9.5,0,1,1,71,15.5,9.5,9.5,0,0,1,61.5,25Zm0-16.889a7.359,7.359,0,0,0-4.688,13.056,11.106,11.106,0,0,1,1.56-.7q0.344-.114.831-0.287a2.4,2.4,0,0,0,.774-0.358,1.446,1.446,0,0,0,.115-0.759V18.888a1.085,1.085,0,0,0-.258-0.673,2.713,2.713,0,0,1-.4-1.16A1.292,1.292,0,0,0,59.26,16.6a2.3,2.3,0,0,1-.229-0.688,0.776,0.776,0,0,1-.014-0.487,1.438,1.438,0,0,0,.072-0.287q-0.058-.458-0.115-0.946a2,2,0,0,1,.573-1.418,2.88,2.88,0,0,1,3.9,0,2,2,0,0,1,.573,1.418q-0.058.487-.115,0.946a1.4,1.4,0,0,0,.072.287,0.779,0.779,0,0,1-.014.487,2.324,2.324,0,0,1-.229.688,1.275,1.275,0,0,0-.172.459,2.72,2.72,0,0,1-.4,1.16,1.085,1.085,0,0,0-.258.673,1.478,1.478,0,0,0,.172.974,13.618,13.618,0,0,0,1.4.544,1.052,1.052,0,0,0,.143.057,11.094,11.094,0,0,1,1.566.706A7.359,7.359,0,0,0,61.5,8.111ZM45,29.994H32v-2H45v2ZM38.5,25A9.5,9.5,0,1,1,48,15.5,9.5,9.5,0,0,1,38.5,25Zm0-16.889a7.359,7.359,0,0,0-4.688,13.056,11.106,11.106,0,0,1,1.56-.7q0.344-.114.831-0.287a2.4,2.4,0,0,0,.774-0.358,1.446,1.446,0,0,0,.115-0.759V18.888a1.085,1.085,0,0,0-.258-0.673,2.713,2.713,0,0,1-.4-1.16A1.292,1.292,0,0,0,36.26,16.6a2.3,2.3,0,0,1-.229-0.688,0.776,0.776,0,0,1-.014-0.487,1.438,1.438,0,0,0,.072-0.287q-0.058-.458-0.115-0.946a2,2,0,0,1,.573-1.418,2.389,2.389,0,0,1,1.949-.759,2.39,2.39,0,0,1,1.949.759,2,2,0,0,1,.573,1.418q-0.058.487-.115,0.946a1.4,1.4,0,0,0,.072.287,0.779,0.779,0,0,1-.014.487,2.324,2.324,0,0,1-.229.688,1.275,1.275,0,0,0-.172.459,2.72,2.72,0,0,1-.4,1.16,1.085,1.085,0,0,0-.258.673,1.478,1.478,0,0,0,.172.974,13.618,13.618,0,0,0,1.4.544,1.052,1.052,0,0,0,.143.057,11.094,11.094,0,0,1,1.566.706A7.359,7.359,0,0,0,38.5,8.111ZM22,29.994H9v-2H22v2ZM15.5,25A9.5,9.5,0,1,1,25,15.5,9.5,9.5,0,0,1,15.5,25Zm0-16.889a7.359,7.359,0,0,0-4.688,13.056,11.106,11.106,0,0,1,1.56-.7q0.344-.114.831-0.287a2.4,2.4,0,0,0,.774-0.358,1.446,1.446,0,0,0,.115-0.759V18.888a1.085,1.085,0,0,0-.258-0.673,2.713,2.713,0,0,1-.4-1.16A1.292,1.292,0,0,0,13.26,16.6a2.3,2.3,0,0,1-.229-0.688,0.776,0.776,0,0,1-.014-0.487,1.438,1.438,0,0,0,.072-0.287q-0.058-.458-0.115-0.946a2,2,0,0,1,.573-1.418,2.389,2.389,0,0,1,1.948-.759,2.39,2.39,0,0,1,1.949.759,2,2,0,0,1,.573,1.418q-0.058.487-.115,0.946a1.4,1.4,0,0,0,.072.287,0.779,0.779,0,0,1-.014.487,2.324,2.324,0,0,1-.229.688,1.275,1.275,0,0,0-.172.459,2.72,2.72,0,0,1-.4,1.16,1.085,1.085,0,0,0-.258.673,1.478,1.478,0,0,0,.172.974,13.618,13.618,0,0,0,1.4.544,1.052,1.052,0,0,0,.143.057,11.094,11.094,0,0,1,1.566.706A7.359,7.359,0,0,0,15.5,8.111ZM54-545.5a7.5,7.5,0,0,1,7.5-7.5,7.5,7.5,0,0,1,7.5,7.5,7.5,7.5,0,0,1-7.5,7.5A7.5,7.5,0,0,1,54-545.5Zm2,0a5.5,5.5,0,0,1,5.5-5.5,5.5,5.5,0,0,1,5.5,5.5,5.5,5.5,0,0,1-5.5,5.5A5.5,5.5,0,0,1,56-545.5Z"/>
</svg>
