<svg xmlns="http://www.w3.org/2000/svg" width="78" height="78" viewBox="0 0 78 78">
  <metadata><?xpacket begin="﻿" id="W5M0MpCehiHzreSzNTczkc9d"?>
<x:xmpmeta xmlns:x="adobe:ns:meta/" x:xmptk="Adobe XMP Core 5.6-c142 79.160924, 2017/07/13-01:06:39        ">
   <rdf:RDF xmlns:rdf="http://www.w3.org/1999/02/22-rdf-syntax-ns#">
      <rdf:Description rdf:about=""/>
   </rdf:RDF>
</x:xmpmeta>
                                                                                                    
                                                                                                    
                                                                                                    
                                                                                                    
                                                                                                    
                                                                                                    
                                                                                                    
                                                                                                    
                                                                                                    
                                                                                                    
                                                                                                    
                                                                                                    
                                                                                                    
                                                                                                    
                                                                                                    
                                                                                                    
                                                                                                    
                                                                                                    
                                                                                                    
                                                                                                    
                           
<?xpacket end="w"?></metadata>
<defs>
    <style>
      .cls-1 {
        fill: #cdcdcd;
        fill-rule: evenodd;
      }
    </style>
  </defs>
  <path id="testimonial-4" class="cls-1" d="M-2,79.993v-82H80v82H-2Zm80-80H0v78H78v-78Zm-70,23H6v0H6V12H8v11Zm0,0h2a6.991,6.991,0,0,1,.047-0.919q0.093-.469,1.9-1.149,0.281-.093.68-0.235a1.965,1.965,0,0,0,.633-0.293,1.184,1.184,0,0,0,.094-0.621V19.636a0.888,0.888,0,0,0-.211-0.551,2.221,2.221,0,0,1-.328-0.95,1.057,1.057,0,0,0-.141-0.375A1.879,1.879,0,0,1,12.48,17.2a0.635,0.635,0,0,1-.012-0.4,1.172,1.172,0,0,0,.059-0.234q-0.047-.375-0.094-0.774A1.636,1.636,0,0,1,12.9,14.63a1.955,1.955,0,0,1,1.594-.621,1.955,1.955,0,0,1,1.594.621,1.639,1.639,0,0,1,.469,1.161q-0.047.4-.094,0.774a1.147,1.147,0,0,0,.059.234,0.638,0.638,0,0,1-.012.4,1.9,1.9,0,0,1-.188.563,1.046,1.046,0,0,0-.141.375,2.225,2.225,0,0,1-.328.95,0.888,0.888,0,0,0-.211.551,1.209,1.209,0,0,0,.141.8,11.118,11.118,0,0,0,1.149.445,0.846,0.846,0,0,0,.117.047q1.805,0.68,1.9,1.149L19,22.993h1v2h0v0H6V23H8v0Zm12,0V12h0v-2h2v15H20v-2h0Zm0-11H6v-2H20v2Zm-14,31v-1h5v1H6Zm0-10h9v2H6v-2Zm12,6H6v-1H18v1Zm-10,25H6v0H6V53H8v11Zm0,0h2a6.991,6.991,0,0,1,.047-0.919q0.093-.469,1.9-1.149,0.281-.093.68-0.235a1.965,1.965,0,0,0,.633-0.293,1.184,1.184,0,0,0,.094-0.621V60.636a0.888,0.888,0,0,0-.211-0.551,2.221,2.221,0,0,1-.328-0.95,1.057,1.057,0,0,0-.141-0.375A1.879,1.879,0,0,1,12.48,58.2a0.635,0.635,0,0,1-.012-0.4,1.172,1.172,0,0,0,.059-0.234q-0.047-.375-0.094-0.774A1.636,1.636,0,0,1,12.9,55.63a1.955,1.955,0,0,1,1.594-.621,1.955,1.955,0,0,1,1.594.621,1.639,1.639,0,0,1,.469,1.161q-0.047.4-.094,0.774a1.147,1.147,0,0,0,.059.234,0.638,0.638,0,0,1-.012.4,1.9,1.9,0,0,1-.188.563,1.046,1.046,0,0,0-.141.375,2.225,2.225,0,0,1-.328.95,0.888,0.888,0,0,0-.211.551,1.209,1.209,0,0,0,.141.8,11.118,11.118,0,0,0,1.149.446,0.846,0.846,0,0,0,.117.047q1.805,0.68,1.9,1.149L19,63.993h1v2h0v0H6V64H8v0Zm12,0V53h0v-2h2v15H20v-2h0Zm0-11H6v-2H20v2Zm2-20h2v11H22v0h0V33Zm2,11h2a6.987,6.987,0,0,1,.046-0.919q0.093-.469,1.9-1.149,0.281-.093.68-0.235a1.965,1.965,0,0,0,.633-0.293,1.184,1.184,0,0,0,.094-0.621V40.636a0.888,0.888,0,0,0-.211-0.551,2.221,2.221,0,0,1-.328-0.95,1.057,1.057,0,0,0-.141-0.375A1.879,1.879,0,0,1,28.48,38.2a0.635,0.635,0,0,1-.012-0.4,1.172,1.172,0,0,0,.059-0.234q-0.047-.375-0.094-0.774A1.636,1.636,0,0,1,28.9,35.63a1.955,1.955,0,0,1,1.594-.621,1.955,1.955,0,0,1,1.594.621,1.639,1.639,0,0,1,.469,1.161q-0.047.4-.094,0.774a1.147,1.147,0,0,0,.059.234,0.638,0.638,0,0,1-.012.4,1.9,1.9,0,0,1-.188.563,1.046,1.046,0,0,0-.141.375,2.225,2.225,0,0,1-.328.95,0.888,0.888,0,0,0-.211.551,1.209,1.209,0,0,0,.141.8,11.118,11.118,0,0,0,1.149.446,0.846,0.846,0,0,0,.117.047q1.805,0.68,1.9,1.149L35,43.993h1v2h0v0H22V44h2v0Zm12,0V33h0v-2h2v15H36v-2h0Zm0-11H22v-2H36v2Zm-2,23H25v-2h9v2Zm3,4H25v-1H37v1Zm-7,4H25v-1h5v1Zm12-41H40v0h0V12h2v11Zm0,0h2a6.987,6.987,0,0,1,.047-0.919q0.093-.469,1.9-1.149,0.281-.093.68-0.235a1.965,1.965,0,0,0,.633-0.293,1.184,1.184,0,0,0,.094-0.621V19.636a0.888,0.888,0,0,0-.211-0.551,2.221,2.221,0,0,1-.328-0.95,1.057,1.057,0,0,0-.141-0.375A1.879,1.879,0,0,1,46.48,17.2a0.635,0.635,0,0,1-.012-0.4,1.172,1.172,0,0,0,.059-0.234q-0.047-.375-0.094-0.774A1.636,1.636,0,0,1,46.9,14.63a2.356,2.356,0,0,1,3.188,0,1.639,1.639,0,0,1,.469,1.161q-0.047.4-.094,0.774a1.147,1.147,0,0,0,.059.234,0.638,0.638,0,0,1-.012.4,1.9,1.9,0,0,1-.188.563,1.046,1.046,0,0,0-.141.375,2.225,2.225,0,0,1-.328.95,0.888,0.888,0,0,0-.211.551,1.209,1.209,0,0,0,.141.8,11.118,11.118,0,0,0,1.149.445,0.846,0.846,0,0,0,.117.047q1.805,0.68,1.9,1.149L53,22.993h1v2h0v0H40V23h2v0Zm12,0V12h0v-2h2v15H54v-2h0Zm0-11H40v-2H54v2Zm-12,31v-1h5v1H42Zm0-10h9v2H42v-2Zm12,6H42v-1H54v1Zm-12,25H40v0h0V53h2v11Zm0,0h2a6.987,6.987,0,0,1,.047-0.919q0.093-.469,1.9-1.149,0.281-.093.68-0.235a1.965,1.965,0,0,0,.633-0.293,1.184,1.184,0,0,0,.094-0.621V60.636a0.888,0.888,0,0,0-.211-0.551,2.221,2.221,0,0,1-.328-0.95,1.057,1.057,0,0,0-.141-0.375A1.879,1.879,0,0,1,46.48,58.2a0.635,0.635,0,0,1-.012-0.4,1.172,1.172,0,0,0,.059-0.234q-0.047-.375-0.094-0.774A1.636,1.636,0,0,1,46.9,55.63a2.356,2.356,0,0,1,3.188,0,1.639,1.639,0,0,1,.469,1.161q-0.047.4-.094,0.774a1.147,1.147,0,0,0,.059.234,0.638,0.638,0,0,1-.012.4,1.9,1.9,0,0,1-.188.563,1.046,1.046,0,0,0-.141.375,2.225,2.225,0,0,1-.328.95,0.888,0.888,0,0,0-.211.551,1.209,1.209,0,0,0,.141.8,11.118,11.118,0,0,0,1.149.446,0.846,0.846,0,0,0,.117.047q1.805,0.68,1.9,1.149L53,63.993h1v2h0v0H40V64h2v0Zm12,0V53h0v-2h2v15H54v-2h0Zm0-11H40v-2H54v2Zm2-20h2v11H56v0h0V33Zm2,11h2a6.987,6.987,0,0,1,.047-0.919q0.093-.469,1.9-1.149,0.281-.093.68-0.235a1.965,1.965,0,0,0,.633-0.293,1.184,1.184,0,0,0,.094-0.621V40.636a0.888,0.888,0,0,0-.211-0.551,2.221,2.221,0,0,1-.328-0.95,1.057,1.057,0,0,0-.141-0.375A1.879,1.879,0,0,1,62.48,38.2a0.635,0.635,0,0,1-.012-0.4,1.172,1.172,0,0,0,.059-0.234q-0.047-.375-0.094-0.774A1.636,1.636,0,0,1,62.9,35.63a2.356,2.356,0,0,1,3.189,0,1.639,1.639,0,0,1,.469,1.161q-0.047.4-.094,0.774a1.147,1.147,0,0,0,.059.234,0.638,0.638,0,0,1-.012.4,1.9,1.9,0,0,1-.188.563,1.046,1.046,0,0,0-.141.375,2.225,2.225,0,0,1-.328.95,0.888,0.888,0,0,0-.211.551,1.209,1.209,0,0,0,.141.8,11.118,11.118,0,0,0,1.149.446,0.846,0.846,0,0,0,.117.047q1.805,0.68,1.9,1.149L69,43.993h1v2h0v0H56V44h2v0Zm12,0V33h0v-2h2v15H70v-2h0Zm0-11H56v-2H70v2Zm-2,23H59v-2h9v2Zm3,4H59v-1H71v1Zm-7,4H59v-1h5v1Zm-5-41v-1h5v1H59Zm0-5H71v1H59v-1Zm0-5h9v2H59v-2Zm-34,10v-1h5v1H25Zm0-5H37v1H25v-1Zm0-5h9v2H25v-2Z"/>
</svg>
