<svg xmlns="http://www.w3.org/2000/svg" width="78" height="56" viewBox="0 0 78 56">
  <metadata><?xpacket begin="﻿" id="W5M0MpCehiHzreSzNTczkc9d"?>
<x:xmpmeta xmlns:x="adobe:ns:meta/" x:xmptk="Adobe XMP Core 5.6-c138 79.159824, 2016/09/14-01:09:01        ">
   <rdf:RDF xmlns:rdf="http://www.w3.org/1999/02/22-rdf-syntax-ns#">
      <rdf:Description rdf:about=""/>
   </rdf:RDF>
</x:xmpmeta>
                                                                                                    
                                                                                                    
                                                                                                    
                                                                                                    
                                                                                                    
                                                                                                    
                                                                                                    
                                                                                                    
                                                                                                    
                                                                                                    
                                                                                                    
                                                                                                    
                                                                                                    
                                                                                                    
                                                                                                    
                                                                                                    
                                                                                                    
                                                                                                    
                                                                                                    
                                                                                                    
                           
<?xpacket end="w"?></metadata>
<defs>
    <style>
      .cls-1 {
        fill: #cdcdcd;
        fill-rule: evenodd;
      }
    </style>
  </defs>
  <path id="big-news-1" class="cls-1" d="M-2-2.006H80v60H-2v-60Zm2,2H78v56H0v-56Zm6,24H25v2H6v-2Zm0-15H25v2H6v-2Zm0,15V11H8v13H6Zm17,0V11h2v13H23Zm6,0H48v2H29v-2Zm0-15H48v2H29v-2Zm0,15V11h2v13H29Zm17,0V11h2v13H46Zm6,0H71v2H52v-2Zm0-15H71v2H52v-2Zm0,15V11h2v13H52Zm17,0V11h2v13H69Zm-63,21H25v2H6v-2Zm0-15H25v2H6v-2Zm0,15v-13H8v13H6Zm17,0v-13h2v13H23Zm6,0H48v2H29v-2Zm0-15H48v2H29v-2Zm0,15v-13h2v13H29Zm17,0v-13h2v13H46Zm6,0H71v2H52v-2Zm0-15H71v2H52v-2Zm0,15v-13h2v13H52Zm17,0v-13h2v13H69ZM8,11L23,23.067v0.927L8,11.924V11Zm15,0L8,23.067v0.927l15-12.07V11Zm8,0L46,23.066v0.927L31,11.924V11Zm15,0L31,23.066v0.927l15-12.07V11Zm8,0L69,23.067v0.927L54,11.924V11Zm15,0L54,23.067v0.927l15-12.07V11Zm-61,21L23,44.066v0.927L8,32.923V31.995Zm15,0L8,44.066v0.927l15-12.07V31.995Zm8,0L46,44.066v0.927L31,32.923V31.995Zm15,0L31,44.066v0.927l15-12.07V31.995Zm8,0L69,44.066v0.927L54,32.923V31.995Zm15,0L54,44.066v0.927l15-12.07V31.995Z"/>
</svg>
