<svg xmlns="http://www.w3.org/2000/svg" width="78" height="56" viewBox="0 0 78 56">
  <metadata><?xpacket begin="﻿" id="W5M0MpCehiHzreSzNTczkc9d"?>
<x:xmpmeta xmlns:x="adobe:ns:meta/" x:xmptk="Adobe XMP Core 5.6-c138 79.159824, 2016/09/14-01:09:01        ">
   <rdf:RDF xmlns:rdf="http://www.w3.org/1999/02/22-rdf-syntax-ns#">
      <rdf:Description rdf:about=""/>
   </rdf:RDF>
</x:xmpmeta>
                                                                                                    
                                                                                                    
                                                                                                    
                                                                                                    
                                                                                                    
                                                                                                    
                                                                                                    
                                                                                                    
                                                                                                    
                                                                                                    
                                                                                                    
                                                                                                    
                                                                                                    
                                                                                                    
                                                                                                    
                                                                                                    
                                                                                                    
                                                                                                    
                                                                                                    
                                                                                                    
                           
<?xpacket end="w"?></metadata>
<defs>
    <style>
      .cls-1 {
        fill: #cdcdcd;
        fill-rule: evenodd;
      }
    </style>
  </defs>
  <path id="big-news-3" class="cls-1" d="M-2-2.006H80v60H-2v-60Zm2,2H78v56H0v-56Zm6,10H71v2H6v-2ZM6,45.987v-34H8v34H6Zm21,0v-34h2v34H27Zm21,0V11.99h2V45.985H48Zm21,0v-34h2v34H69ZM6,45.993H71v2H6v-2Zm2-18H27v2H8v-2Zm21,0H48v2H29v-2Zm21,0H69v2H50v-2ZM9,13L26,26.067v0.927L9,13.924V13Zm17,0L9,26.067v0.927l17-13.07V13Zm4,0,17,13.07v0.928L30,13.924V13Zm17,0L30,26.066v0.928l17-13.07V13Zm4,0L68,26.067v0.927L51,13.924V13Zm17,0L51,26.067v0.927l17-13.07V13Zm-59,18L26,44.066v0.927L9,31.923V30.995Zm17,0L9,44.066v0.927l17-13.07V30.995Zm4,0L47,44.066v0.927L30,31.923V30.995Zm17,0L30,44.066v0.927l17-13.07V30.995Zm4,0L68,44.066v0.927L51,31.923V30.995Zm17,0L51,44.066v0.927l17-13.07V30.995Z"/>
</svg>
