<svg xmlns="http://www.w3.org/2000/svg" width="78" height="56" viewBox="0 0 78 56">
  <metadata><?xpacket begin="﻿" id="W5M0MpCehiHzreSzNTczkc9d"?>
<x:xmpmeta xmlns:x="adobe:ns:meta/" x:xmptk="Adobe XMP Core 5.6-c138 79.159824, 2016/09/14-01:09:01        ">
   <rdf:RDF xmlns:rdf="http://www.w3.org/1999/02/22-rdf-syntax-ns#">
      <rdf:Description rdf:about=""/>
   </rdf:RDF>
</x:xmpmeta>
                                                                                                    
                                                                                                    
                                                                                                    
                                                                                                    
                                                                                                    
                                                                                                    
                                                                                                    
                                                                                                    
                                                                                                    
                                                                                                    
                                                                                                    
                                                                                                    
                                                                                                    
                                                                                                    
                                                                                                    
                                                                                                    
                                                                                                    
                                                                                                    
                                                                                                    
                                                                                                    
                           
<?xpacket end="w"?></metadata>
<defs>
    <style>
      .cls-1 {
        fill: #cdcdcd;
        fill-rule: evenodd;
      }
    </style>
  </defs>
  <path id="big-news-4" class="cls-1" d="M80-2.005H-2v60H80v-60Zm-2,2H0v56H78v-56Zm-6,31H38v2H72v-2Zm0-19H38v2H72v-2Zm0,19V14H70v17h2Zm-32,0V14H38v17h2ZM70,14L40,30.066v0.928L70,14.923V14ZM40,14L70,30.066v0.928L40,14.923V14Zm-2,17H6v2H38v-2Zm0-19H6v2H38v-2Zm-30,19V14H6v17H8ZM38,14L8,30.066v0.928L38,14.923V14ZM8,14L38,30.066v0.928L8,14.923V14ZM56,42V33H54v9h2ZM40,42V33H38v9h2Zm14-9L40,41.066V42l14-8.074V33ZM40,33l14,8.071V42L40,33.922V33Zm32,9V33H70v9h2Zm-2-9L56,41.066V42l14-8.074V33ZM56,33l14,8.071V42L56,33.922V33Zm16,9H6v2H72v-2ZM24,42V33H22v9h2ZM8,42V33H6v9H8Zm14-9L8,41.066V42l14-8.074V33ZM8,33l14,8.071V42L8,33.922V33Zm30,0L24,41.066V42l14-8.074V33ZM24,33l14,8.071V42L24,33.922V33Z"/>
</svg>
