<svg xmlns="http://www.w3.org/2000/svg" width="78" height="56" viewBox="0 0 78 56">
  <metadata><?xpacket begin="﻿" id="W5M0MpCehiHzreSzNTczkc9d"?>
<x:xmpmeta xmlns:x="adobe:ns:meta/" x:xmptk="Adobe XMP Core 5.6-c138 79.159824, 2016/09/14-01:09:01        ">
   <rdf:RDF xmlns:rdf="http://www.w3.org/1999/02/22-rdf-syntax-ns#">
      <rdf:Description rdf:about=""/>
   </rdf:RDF>
</x:xmpmeta>
                                                                                                    
                                                                                                    
                                                                                                    
                                                                                                    
                                                                                                    
                                                                                                    
                                                                                                    
                                                                                                    
                                                                                                    
                                                                                                    
                                                                                                    
                                                                                                    
                                                                                                    
                                                                                                    
                                                                                                    
                                                                                                    
                                                                                                    
                                                                                                    
                                                                                                    
                                                                                                    
                           
<?xpacket end="w"?></metadata>
<defs>
    <style>
      .cls-1 {
        fill: #cdcdcd;
        fill-rule: evenodd;
      }
    </style>
  </defs>
  <path id="big-news-2" class="cls-1" d="M-2-2.006H80v60H-2v-60Zm2,2H78v56H0v-56Zm6,26H27v2H6v-2Zm0-16H27v2H6v-2Zm0,16V12H8v14H6Zm19,0V12h2v14H25Zm3,0H49v2H28v-2Zm0-16H49v2H28v-2Zm0,16V12h2v14H28Zm19,0V12h2v14H47Zm3,0H71v2H50v-2Zm0-16H71v2H50v-2Zm0,16V12h2v14H50Zm19,0V12h2v14H69Zm-63,19H27v2H6v-2Zm0-16H27v2H6v-2Zm0,16v-14H8v14H6Zm19,0v-14h2v14H25Zm3,0H49v2H28v-2Zm0-16H49v2H28v-2Zm0,16v-14h2v14H28Zm19,0v-14h2v14H47Zm3,0H71v2H50v-2Zm0-16H71v2H50v-2Zm0,16v-14h2v14H50Zm19,0v-14h2v14H69ZM8,12L25,25.067v0.927L8,12.924V12Zm17,0L8,25.067v0.927l17-13.07V12Zm5,0,17,13.07v0.927L30,12.924V12Zm17,0L30,25.066v0.927L47,12.924V12Zm5,0L69,25.067v0.927L52,12.924V12Zm17,0L52,25.067v0.927l17-13.07V12Zm-61,19L25,44.066v0.927L8,31.923V30.995Zm17,0L8,44.066v0.927l17-13.07V30.995Zm5,0L47,44.066v0.927L30,31.923V30.995Zm17,0L30,44.066v0.927l17-13.07V30.995Zm5,0L69,44.066v0.927L52,31.923V30.995Zm17,0L52,44.066v0.927l17-13.07V30.995Z"/>
</svg>
