<svg xmlns="http://www.w3.org/2000/svg" width="78" height="56" viewBox="0 0 78 56">
  <metadata><?xpacket begin="﻿" id="W5M0MpCehiHzreSzNTczkc9d"?>
<x:xmpmeta xmlns:x="adobe:ns:meta/" x:xmptk="Adobe XMP Core 5.6-c138 79.159824, 2016/09/14-01:09:01        ">
   <rdf:RDF xmlns:rdf="http://www.w3.org/1999/02/22-rdf-syntax-ns#">
      <rdf:Description rdf:about=""/>
   </rdf:RDF>
</x:xmpmeta>
                                                                                                    
                                                                                                    
                                                                                                    
                                                                                                    
                                                                                                    
                                                                                                    
                                                                                                    
                                                                                                    
                                                                                                    
                                                                                                    
                                                                                                    
                                                                                                    
                                                                                                    
                                                                                                    
                                                                                                    
                                                                                                    
                                                                                                    
                                                                                                    
                                                                                                    
                                                                                                    
                           
<?xpacket end="w"?></metadata>
<defs>
    <style>
      .cls-1 {
        fill: #cdcdcd;
        fill-rule: evenodd;
      }
    </style>
  </defs>
  <path id="big-news-6" class="cls-1" d="M-2-2.005H80v60H-2v-60Zm2,2H78v56H0v-56Zm24,42H54v2H24v-2Zm0-30H54v2H24V12Zm0,2L54,41.066v0.928L24,14.924V14Zm30,0L24,41.066v0.928L54,14.924V14Zm-48,13H24v2H6v-2ZM6,12H24v2H6V12Zm0,15V14H8v13H6Zm16,0V14h2v13H22ZM8,14L22,26.067v0.927L8,14.924V14Zm14,0L8,26.067v0.927l14-12.07V14Zm32,13H72v2H54v-2Zm0-15H72v2H54V12Zm0,15V14h2v13H54Zm16,0V14h2v13H70ZM56,14L70,26.067v0.927L56,14.924V14Zm14,0L56,26.067v0.927l14-12.07V14Zm-64,28H24v2H6v-2Zm0,0v-13H8v13H6Zm16,0v-13h2v13H22Zm-14-13L22,41.066v0.928L8,29.922V28.995Zm14,0L8,41.066v0.928L22,29.922V28.995Zm32,13H72v2H54v-2Zm0,0v-13h2v13H54Zm16,0v-13h2v13H70Zm-14-13L70,41.066v0.928L56,29.922V28.995Zm14,0L56,41.066v0.928L70,29.922V28.995Z"/>
</svg>
