<svg xmlns="http://www.w3.org/2000/svg" width="78" height="56" viewBox="0 0 78 56">
  <metadata><?xpacket begin="﻿" id="W5M0MpCehiHzreSzNTczkc9d"?>
<x:xmpmeta xmlns:x="adobe:ns:meta/" x:xmptk="Adobe XMP Core 5.6-c138 79.159824, 2016/09/14-01:09:01        ">
   <rdf:RDF xmlns:rdf="http://www.w3.org/1999/02/22-rdf-syntax-ns#">
      <rdf:Description rdf:about=""/>
   </rdf:RDF>
</x:xmpmeta>
                                                                                                    
                                                                                                    
                                                                                                    
                                                                                                    
                                                                                                    
                                                                                                    
                                                                                                    
                                                                                                    
                                                                                                    
                                                                                                    
                                                                                                    
                                                                                                    
                                                                                                    
                                                                                                    
                                                                                                    
                                                                                                    
                                                                                                    
                                                                                                    
                                                                                                    
                                                                                                    
                           
<?xpacket end="w"?></metadata>
<defs>
    <style>
      .cls-1 {
        fill: #cdcdcd;
        fill-rule: evenodd;
      }
    </style>
  </defs>
  <path id="big-news-8" class="cls-1" d="M56,41.994H72v2H56v-2Zm-2,0v-13h2v13H54Zm16,0v-13h2v13H70Zm-14-13L70,41.066v0.928L56,29.922V28.995Zm14,0L56,41.066v0.928L70,29.922V28.995Zm-30,13H56v2H40v-2Zm-2,0v-13h2v13H38Zm2-13L54,41.066v0.928L40,29.922V28.995Zm14,0L40,41.066v0.928L54,29.922V28.995Zm-56-31H80v60H-2v-60Zm2,2H78v56H0v-56Zm6,42H40v2H6v-2ZM6,12H40v2H6V12Zm0,30V14H8v28H6ZM8,14L38,41.066v0.928L8,14.924V14Zm30,0L8,41.066v0.928L38,14.924V14Zm0,13H72v2H38v-2Zm2-15H72v2H40V12Zm-2,15V14h2v13H38Zm32,0V14h2v13H70ZM40,14L70,26.067v0.927L40,14.924V14Zm30,0L40,26.067v0.927l30-12.07V14Z"/>
</svg>
